<?xml version="1.0" standalone="no"?>
<!DOCTYPE svg PUBLIC "-//W3C//DTD SVG 20010904//EN"
 "http://www.w3.org/TR/2001/REC-SVG-20010904/DTD/svg10.dtd">
<svg version="1.0" xmlns="http://www.w3.org/2000/svg"
 width="627.000000pt" height="414.000000pt" viewBox="0 0 627.000000 414.000000"
 preserveAspectRatio="xMidYMid meet">

<g transform="translate(0.000000,414.000000) scale(0.100000,-0.100000)"
fill="#000000" stroke="none">
<path d="M0 2070 l0 -2070 3135 0 3135 0 0 2070 0 2070 -3135 0 -3135 0 0
-2070z m4287 1348 c-3 -8 -6 -5 -6 6 -1 11 2 17 5 13 3 -3 4 -12 1 -19z
m-1032 -13 c439 -93 805 -427 930 -850 15 -49 30 -100 34 -113 5 -19 32 -34
138 -76 256 -103 403 -210 403 -295 0 -32 -55 -86 -111 -111 -100 -43 -338
-76 -355 -49 -12 20 10 28 116 44 119 18 217 47 254 76 63 50 8 129 -144 208
-81 42 -249 111 -272 111 -10 0 -12 -28 -10 -122 8 -303 -82 -580 -264 -808
-107 -136 -274 -274 -422 -349 -117 -60 -282 -105 -437 -121 -432 -44 -853
146 -1123 506 -205 274 -285 659 -207 999 15 66 38 147 51 179 36 90 37 89
-58 81 -196 -15 -338 -49 -382 -90 -36 -34 -33 -66 12 -112 49 -52 222 -153
261 -153 6 0 11 -9 11 -20 0 -27 -26 -26 -100 4 -127 52 -243 141 -271 209
-11 26 -10 35 7 66 40 74 187 122 447 143 l137 11 29 51 c85 151 297 362 431
431 19 10 37 21 40 25 8 12 188 86 254 106 125 35 198 43 361 40 98 -3 191
-11 240 -21z m1064 -57 c24 -55 104 -130 164 -153 26 -10 47 -21 47 -25 0 -3
-25 -17 -55 -29 -75 -31 -136 -95 -168 -173 l-25 -63 -11 41 c-25 92 -127 194
-211 210 -29 6 -42 24 -17 24 27 0 114 49 151 85 21 21 47 58 58 82 10 24 26
43 34 43 8 0 23 -19 33 -42z m283 -478 c10 -17 31 -38 48 -48 31 -18 39 -32
18 -32 -19 -1 -53 -32 -70 -64 l-15 -28 -21 36 c-12 20 -33 41 -47 48 -32 15
-32 24 4 43 16 8 35 28 43 45 7 16 15 30 18 30 3 0 13 -14 22 -30z m294 -2376
c39 -19 65 -60 63 -101 -2 -26 -2 -25 -9 7 l-7 35 -2 -33 c-3 -74 -90 -108
-147 -58 -55 47 -29 127 47 147 l34 9 -39 -5 c-74 -8 -115 -80 -82 -143 20
-39 44 -52 96 -52 33 0 48 6 71 29 16 16 29 26 29 21 0 -4 -14 -20 -31 -34
-22 -19 -42 -26 -73 -26 -102 0 -151 114 -78 182 45 42 75 47 128 22z m149
-34 c-3 -5 -10 -10 -16 -10 -5 0 -9 5 -9 10 0 6 7 10 16 10 8 0 12 -4 9 -10z
m435 0 c0 -5 -7 -10 -15 -10 -8 0 -15 5 -15 10 0 6 7 10 15 10 8 0 15 -4 15
-10z m230 -63 l0 -74 -45 -1 c-35 -2 -46 2 -55 17 -26 49 3 97 52 87 25 -5 28
-3 28 19 0 14 5 25 10 25 6 0 10 -31 10 -73z m-374 11 l17 -53 24 53 c16 38
28 52 43 52 18 0 20 -6 20 -70 0 -54 -3 -70 -14 -70 -11 0 -16 15 -18 53 l-3
52 -18 -53 c-11 -29 -24 -51 -30 -49 -5 1 -20 28 -31 58 l-21 54 -3 -57 c-4
-82 -22 -72 -22 12 0 62 2 70 19 70 14 0 24 -13 37 -52z m-296 -33 c0 -30 -4
-55 -10 -55 -5 0 -10 25 -10 55 0 30 5 55 10 55 6 0 10 -25 10 -55z m110 29
c15 -39 13 -84 -4 -84 -10 0 -16 14 -18 43 -2 34 -7 42 -23 42 -16 0 -21 -8
-23 -42 -4 -62 -22 -53 -22 10 l0 54 40 1 c35 2 42 -2 50 -24z m99 12 c8 -9 8
-16 2 -20 -5 -4 -12 -2 -16 4 -8 13 -45 13 -45 0 0 -5 15 -13 33 -18 25 -6 32
-14 32 -33 0 -20 -6 -25 -34 -27 -18 -2 -38 1 -44 7 -16 16 0 26 18 11 16 -13
45 -7 45 9 0 5 -14 12 -31 16 -32 7 -45 25 -35 50 7 19 60 20 75 1z m221 -41
c0 -30 -4 -55 -10 -55 -5 0 -10 25 -10 55 0 30 5 55 10 55 6 0 10 -25 10 -55z
m110 36 c16 -31 13 -91 -5 -91 -11 0 -15 12 -15 46 0 41 -2 45 -22 42 -19 -2
-24 -10 -26 -45 -4 -62 -22 -53 -22 10 l0 54 40 1 c30 1 42 -3 50 -17z m215
-51 c3 -6 -1 -7 -9 -4 -11 4 -16 0 -16 -11 0 -11 5 -15 15 -11 8 3 15 1 15 -4
0 -13 -37 -13 -45 0 -4 6 -4 17 -1 25 6 17 32 20 41 5z m63 -13 c4 -20 -25
-34 -40 -19 -15 15 -1 44 19 40 10 -2 19 -11 21 -21z m81 -4 c-2 -24 -2 -25
-6 -5 -2 12 -9 22 -14 22 -5 0 -10 -10 -10 -22 l-2 -23 -4 23 c-2 12 -8 22
-13 22 -5 0 -11 -10 -13 -22 -4 -20 -4 -19 -6 5 -1 25 2 27 34 27 32 0 35 -2
34 -27z"/>
<path d="M2828 3403 c-16 -2 -28 -9 -28 -15 0 -7 18 -9 53 -4 28 3 71 6 95 6
23 0 42 5 42 10 0 10 -105 12 -162 3z"/>
<path d="M3006 3401 c13 -12 184 -24 184 -13 0 12 -60 22 -134 22 -35 0 -56
-4 -50 -9z"/>
<path d="M2705 3375 l-40 -13 45 5 c49 6 91 23 55 22 -11 0 -38 -7 -60 -14z"/>
<path d="M3226 3381 c5 -4 32 -11 59 -14 l50 -5 -40 13 c-47 16 -83 19 -69 6z"/>
<path d="M2855 3372 c-74 -5 -81 -9 -104 -63 -12 -28 -21 -52 -19 -54 2 -2 60
-1 131 2 l127 6 0 57 0 56 -47 0 c-27 -1 -66 -2 -88 -4z"/>
<path d="M3005 3372 c-8 -8 -6 -86 3 -98 4 -7 59 -13 134 -17 l127 -6 -9 25
c-21 55 -42 84 -63 88 -34 8 -186 13 -192 8z"/>
<path d="M2667 3345 c-37 -8 -77 -17 -88 -20 -19 -6 -106 -112 -98 -119 2 -2
45 5 94 15 50 10 100 18 113 19 17 0 27 11 42 46 21 48 25 75 13 73 -5 0 -39
-7 -76 -14z"/>
<path d="M3246 3353 c-2 -3 6 -28 19 -56 l22 -52 64 -11 c35 -7 85 -16 112
-22 26 -5 47 -6 47 -1 0 19 -69 96 -100 111 -34 16 -156 39 -164 31z"/>
<path d="M2464 3286 c-75 -31 -140 -75 -168 -115 -14 -19 -24 -36 -23 -37 2
-2 43 11 92 29 80 29 91 36 122 80 19 27 33 52 31 56 -2 4 -26 -2 -54 -13z"/>
<path d="M3472 3303 c1 -4 18 -31 35 -59 32 -49 37 -52 125 -82 50 -18 93 -30
95 -29 8 9 -73 90 -113 113 -51 30 -148 68 -142 57z"/>
<path d="M2783 3241 c-60 -7 -59 -7 -68 -44 l-8 -29 109 7 c169 9 174 11 174
45 l0 30 -77 -1 c-43 -1 -101 -5 -130 -8z"/>
<path d="M3000 3227 c0 -15 8 -30 18 -35 9 -5 72 -12 140 -16 l122 -6 0 29 c0
18 -6 31 -17 35 -9 4 -72 9 -140 13 l-123 6 0 -26z"/>
<path d="M2605 3215 c-33 -8 -77 -17 -98 -21 -28 -5 -42 -14 -53 -36 -9 -17
-13 -32 -11 -34 6 -6 240 37 248 45 4 3 9 18 13 34 8 32 -3 33 -99 12z"/>
<path d="M3290 3206 c0 -39 2 -40 233 -83 32 -6 37 13 10 46 -13 15 -46 26
-120 41 -126 25 -123 25 -123 -4z"/>
<path d="M2375 3151 c-107 -40 -141 -58 -153 -86 -7 -15 -11 -29 -9 -31 2 -3
20 3 40 11 58 24 57 17 -2 -13 -47 -23 -56 -33 -69 -70 -8 -24 -12 -45 -10
-48 3 -2 51 14 108 35 107 40 110 43 125 109 6 30 5 32 -17 24 -13 -5 -36 -12
-51 -16 -47 -11 -22 10 28 24 48 13 59 22 69 58 9 26 5 27 -59 3z"/>
<path d="M2785 3163 c-75 -6 -83 -11 -88 -46 l-4 -32 -1 33 c-2 37 4 36 -94
17 -159 -30 -167 -33 -178 -74 -19 -69 -17 -70 83 -46 34 8 88 19 120 25 41 8
57 16 57 28 0 14 1 14 13 0 10 -13 25 -14 92 -7 44 4 108 8 143 8 l62 1 0 50
0 50 -82 -2 c-46 -1 -101 -3 -123 -5z"/>
<path d="M3002 3124 l3 -49 95 -7 c52 -4 119 -9 148 -12 51 -4 52 -4 53 22 1
21 2 22 6 7 3 -11 8 -23 12 -27 8 -9 260 -62 266 -57 4 4 -14 99 -19 99 -2 0
-54 11 -116 25 -132 29 -140 30 -140 10 0 -8 -4 -15 -10 -15 -5 0 -10 6 -10
14 0 21 -24 26 -163 33 l-128 6 3 -49z"/>
<path d="M3563 3139 c9 -24 23 -35 57 -46 25 -8 51 -16 59 -19 8 -2 12 -7 9
-9 -3 -3 -24 2 -48 10 -23 8 -46 13 -50 10 -4 -2 -3 -24 3 -49 l10 -44 109
-42 c60 -23 112 -39 115 -37 3 3 -3 26 -12 52 -16 39 -25 49 -67 67 -27 11
-47 23 -44 25 3 3 19 -2 37 -11 39 -19 39 -19 39 -2 0 29 -46 64 -122 95 -101
41 -112 41 -95 0z"/>
<path d="M2208 3123 c-50 -40 -63 -61 -25 -42 29 15 57 40 68 61 13 25 11 23
-43 -19z"/>
<path d="M3746 3134 c10 -14 35 -34 58 -45 l41 -20 -50 46 c-55 50 -74 58 -49
19z"/>
<path d="M2180 3063 c-47 -19 -130 -97 -117 -110 11 -10 124 66 135 92 12 25
9 28 -18 18z"/>
<path d="M3790 3061 c0 -26 131 -123 146 -108 9 9 -47 66 -90 91 -49 29 -56
31 -56 17z"/>
<path d="M2880 3053 c-25 -1 -78 -5 -117 -9 l-73 -6 -1 -31 -2 -32 -4 29 c-4
28 -6 28 -52 23 -27 -3 -89 -15 -138 -27 -104 -24 -96 -12 -109 -162 l-6 -78
48 0 c27 0 93 7 147 17 l97 16 2 76 2 76 3 -73 4 -73 122 6 c67 3 137 8 155
11 l32 5 0 119 0 120 -32 -2 c-18 -1 -53 -3 -78 -5z"/>
<path d="M3007 3054 c-4 -4 -7 -54 -7 -110 0 -130 3 -133 113 -136 144 -3 202
-6 217 -12 8 -3 44 -10 80 -16 36 -7 90 -18 120 -26 30 -8 60 -14 67 -14 14 0
18 95 7 187 l-7 51 -87 21 c-141 33 -487 71 -503 55z m310 -156 c-2 -24 -4 -5
-4 42 0 47 2 66 4 43 2 -24 2 -62 0 -85z"/>
<path d="M2120 2963 c-25 -14 -58 -38 -73 -52 -28 -25 -60 -86 -55 -102 2 -5
38 14 80 42 68 43 79 55 88 90 6 23 10 43 8 45 -2 2 -24 -9 -48 -23z"/>
<path d="M3820 2987 c0 -2 7 -25 16 -51 13 -38 24 -51 57 -68 23 -11 53 -30
68 -40 40 -30 49 -19 25 31 -15 33 -38 56 -85 88 -58 38 -81 50 -81 40z"/>
<path d="M2272 2932 c-51 -21 -98 -44 -106 -52 -8 -8 -17 -36 -20 -61 l-7 -46
107 -7 c59 -4 110 -3 114 1 11 12 23 203 13 202 -4 0 -50 -17 -101 -37z"/>
<path d="M3616 2904 c3 -38 7 -92 10 -120 l5 -51 97 -36 c54 -20 105 -39 115
-43 15 -5 17 1 17 47 0 75 -19 182 -33 191 -17 11 -157 65 -189 73 l-27 7 5
-68z"/>
<path d="M2062 2829 c-34 -23 -62 -46 -62 -50 0 -12 117 -12 124 -1 11 19 18
92 9 92 -6 0 -38 -19 -71 -41z"/>
<path d="M3863 2813 c4 -32 9 -85 13 -118 l6 -60 83 -53 c45 -28 85 -52 89
-52 24 0 -18 221 -48 248 -32 29 -127 92 -138 92 -7 0 -8 -21 -5 -57z"/>
<path d="M1948 2815 c-20 -26 -23 -45 -9 -45 12 0 41 40 41 57 0 20 -13 15
-32 -12z"/>
<path d="M4021 2811 c9 -26 69 -94 69 -77 0 12 -31 70 -48 89 -23 26 -32 21
-21 -12z"/>
<path d="M2730 2781 c-36 -5 -45 -10 -45 -26 0 -17 11 -22 80 -32 44 -6 113
-14 153 -18 l72 -7 0 46 0 46 -107 -2 c-60 0 -128 -4 -153 -7z"/>
<path d="M3000 2747 c0 -25 4 -48 9 -51 7 -4 198 -38 281 -49 11 -1 16 12 21
53 l6 55 1 -56 2 -56 103 -22 c56 -12 121 -25 145 -28 l42 -6 0 65 0 65 -99
22 c-54 12 -120 23 -147 24 -27 1 -52 6 -55 10 -3 5 -74 11 -158 14 l-151 6 0
-46z"/>
<path d="M2603 2763 c-40 -8 -25 -23 22 -23 33 0 45 4 45 15 0 15 -19 17 -67
8z"/>
<path d="M4054 2707 c3 -12 10 -63 15 -112 10 -87 12 -91 50 -127 22 -21 45
-38 51 -38 17 0 11 82 -10 146 -31 90 -125 207 -106 131z"/>
<path d="M1908 2703 c-56 -64 -97 -180 -98 -273 l0 -34 54 53 c52 51 54 55 59
119 3 37 9 86 13 110 7 45 -3 54 -28 25z"/>
<path d="M1951 2683 c-11 -47 -24 -163 -17 -163 3 0 46 28 95 61 88 60 91 63
91 100 l0 39 -80 0 -79 0 -10 -37z"/>
<path d="M2130 2685 c0 -19 3 -35 7 -35 22 0 142 53 137 61 -3 5 -36 9 -75 9
l-69 0 0 -35z"/>
<path d="M2384 2649 c14 -164 19 -199 27 -204 4 -3 45 3 91 14 46 11 104 22
131 26 l47 6 2 47 1 47 4 -40 c3 -22 9 -42 14 -45 5 -4 39 -3 76 1 38 5 101 8
141 8 l72 1 0 68 0 68 -128 17 c-162 21 -179 21 -185 0 -4 -14 -5 -14 -6 3 -1
19 -9 22 -88 28 -49 4 -114 9 -146 13 l-58 6 5 -64z"/>
<path d="M3626 2688 c-3 -13 -6 -42 -6 -65 0 -47 -8 -43 140 -77 99 -24 100
-23 100 29 0 42 -3 46 -37 64 -32 16 -177 71 -187 71 -2 0 -6 -10 -10 -22z"/>
<path d="M2230 2662 l-95 -38 0 -44 c0 -49 11 -158 21 -203 4 -22 10 -27 22
-21 10 3 60 22 112 41 52 19 96 36 98 37 2 2 -3 63 -9 135 -15 155 -6 149
-149 93z"/>
<path d="M3007 2633 c-10 -9 -9 -111 1 -116 4 -2 71 -8 150 -11 l142 -7 0 25
c0 14 4 26 8 26 4 0 8 -12 7 -27 0 -27 3 -28 105 -50 58 -12 119 -25 137 -28
31 -7 32 -6 38 39 4 26 6 48 4 50 -10 8 -536 105 -575 106 -6 0 -14 -3 -17 -7z"/>
<path d="M2049 2572 c-25 -15 -62 -40 -83 -56 l-38 -30 7 -65 c11 -110 27
-191 37 -191 6 0 23 11 39 24 16 14 52 37 79 52 34 18 50 34 50 47 0 65 -25
247 -34 247 -6 0 -31 -13 -57 -28z"/>
<path d="M3876 2584 c-20 -53 -6 -66 104 -94 25 -6 53 -13 63 -16 10 -3 17 0
17 8 0 14 -148 118 -168 118 -5 0 -13 -7 -16 -16z"/>
<path d="M3617 2523 c-2 -4 -8 -27 -12 -49 l-6 -42 53 -17 c29 -10 79 -28 110
-41 71 -29 76 -30 81 -1 4 19 4 18 6 -5 1 -23 15 -37 87 -84 48 -30 90 -52 94
-47 8 9 30 126 30 160 0 18 -13 24 -82 43 -112 31 -112 31 -119 -10 l-6 -35
-2 41 -1 41 -92 22 c-51 12 -103 24 -114 27 -12 3 -24 2 -27 -3z"/>
<path d="M2770 2489 c-36 -4 -76 -10 -90 -12 -14 -3 -47 -8 -75 -12 -61 -8
-177 -35 -187 -44 -4 -4 -2 -37 4 -74 8 -50 15 -67 27 -67 12 0 182 34 246 50
6 1 33 1 60 0 l50 -3 -45 -6 c-36 -5 -45 -10 -51 -31 -7 -24 -7 -24 -8 -2 -1
27 -5 27 -122 2 -143 -30 -140 -28 -133 -59 26 -114 20 -109 105 -87 31 8 79
18 107 22 51 6 52 7 54 43 l1 36 4 -34 4 -34 82 7 c45 3 106 6 135 6 l52 0 0
70 0 70 -92 2 c-66 1 -75 3 -33 5 33 2 75 5 93 8 l32 6 0 74 0 75 -77 -1 c-43
-1 -107 -5 -143 -10z m-73 -101 c-2 -13 -4 -3 -4 22 0 25 2 35 4 23 2 -13 2
-33 0 -45z"/>
<path d="M3000 2431 c0 -87 -3 -85 168 -95 l122 -7 2 43 1 43 6 -45 6 -44 123
-25 c102 -21 125 -23 132 -11 13 21 23 121 13 131 -10 10 -167 46 -223 51 -32
3 -35 0 -41 -27 l-7 -30 -1 31 c-1 38 -10 41 -181 50 l-120 7 0 -72z"/>
<path d="M1887 2445 c-16 -17 -40 -48 -54 -69 -22 -35 -25 -46 -19 -100 10
-92 28 -176 37 -176 4 0 12 6 16 14 4 8 25 33 47 56 l38 42 -16 101 c-8 56
-17 115 -18 132 l-3 30 -28 -30z"/>
<path d="M2330 2399 c-71 -24 -153 -61 -162 -73 -3 -5 -2 -20 3 -33 5 -14 9
-34 9 -47 0 -12 6 -31 14 -41 12 -17 17 -18 37 -7 47 23 178 70 183 64 3 -3 6
4 6 16 0 29 -21 126 -29 133 -3 4 -31 -2 -61 -12z"/>
<path d="M3597 2407 c-3 -7 -8 -43 -12 -79 l-7 -65 49 -13 c26 -8 72 -24 101
-37 29 -13 56 -23 61 -23 8 0 26 52 36 110 l6 35 -93 36 c-129 50 -135 52
-141 36z"/>
<path d="M4076 2398 c-7 -26 -26 -146 -26 -168 0 -12 15 -39 34 -60 18 -20 38
-45 43 -55 22 -38 32 -8 59 173 7 52 -12 87 -61 108 -42 17 -45 17 -49 2z"/>
<path d="M3004 2316 c-3 -7 -4 -38 -2 -67 l3 -54 130 -8 c92 -6 131 -5 133 3
3 7 8 6 16 -3 12 -16 221 -61 236 -52 5 3 14 31 20 61 10 46 9 58 -2 65 -19
12 -145 39 -198 41 -44 3 -45 2 -51 -32 l-6 -35 -2 41 -1 41 -77 7 c-125 10
-193 8 -199 -8z"/>
<path d="M2090 2289 c-30 -16 -70 -42 -88 -57 l-34 -28 22 -67 c20 -61 33 -80
42 -59 3 8 125 89 142 95 10 3 -11 134 -23 141 -4 3 -31 -9 -61 -25z"/>
<path d="M3829 2258 c-8 -35 -14 -66 -14 -70 0 -11 165 -117 169 -109 11 18
36 98 36 116 0 13 -19 32 -53 55 -57 39 -109 69 -118 70 -4 0 -12 -28 -20 -62z"/>
<path d="M1785 2280 c-11 -17 -9 -228 3 -280 l8 -35 17 49 c21 60 21 76 -1
191 -13 66 -20 86 -27 75z"/>
<path d="M4196 2269 c-2 -8 -12 -56 -21 -107 -15 -84 -15 -96 -2 -137 9 -25
12 -45 7 -45 -4 0 -11 11 -14 25 -10 38 -21 30 -41 -27 -16 -48 -16 -58 -3
-102 8 -28 19 -51 25 -53 15 -5 33 52 33 104 0 24 4 42 9 39 15 -10 22 34 28
167 4 87 2 132 -5 139 -8 8 -13 7 -16 -3z"/>
<path d="M2334 2226 c-86 -34 -124 -55 -124 -69 0 -18 19 -80 29 -96 8 -12 24
-9 98 18 48 18 94 34 101 36 15 5 15 33 1 91 -13 52 -19 53 -105 20z"/>
<path d="M3565 2238 c-9 -29 -25 -94 -25 -105 0 -6 30 -21 66 -33 37 -13 78
-29 93 -36 39 -21 51 -17 66 19 32 76 31 84 -15 107 -41 21 -153 60 -172 60
-5 0 -10 -6 -13 -12z"/>
<path d="M1919 2153 c-69 -72 -70 -77 -46 -144 12 -33 24 -58 27 -57 3 2 27
26 54 55 l48 52 -22 66 c-12 36 -23 65 -24 65 -1 0 -18 -17 -37 -37z"/>
<path d="M4025 2156 c-33 -78 -31 -90 20 -150 27 -30 52 -53 56 -50 5 2 16 29
25 58 l17 53 -30 44 c-17 24 -40 53 -52 63 -21 19 -21 19 -36 -18z"/>
<path d="M2820 2175 c-8 -2 -32 -6 -52 -10 -30 -5 -37 -10 -41 -33 l-4 -27 -2
28 c-1 33 -2 33 -128 7 -54 -11 -101 -20 -105 -20 -5 0 -8 -8 -8 -17 0 -22 78
-265 89 -276 4 -4 39 -1 77 8 38 8 79 18 92 20 14 4 22 13 23 28 0 22 0 22 10
-2 9 -22 13 -23 62 -17 28 3 76 6 105 6 l52 0 0 155 0 155 -77 -1 c-43 -1 -85
-3 -93 -4z m-83 -132 c-3 -10 -5 -2 -5 17 0 19 2 27 5 18 2 -10 2 -26 0 -35z
m10 -55 c-3 -7 -5 -2 -5 12 0 14 2 19 5 13 2 -7 2 -19 0 -25z m10 -55 c-3 -10
-5 -4 -5 12 0 17 2 24 5 18 2 -7 2 -21 0 -30z"/>
<path d="M3000 2031 c0 -112 3 -153 13 -156 6 -2 59 -6 117 -8 58 -3 112 -7
120 -10 8 -4 40 -11 70 -17 30 -5 67 -13 82 -16 26 -6 27 -5 72 136 25 78 46
145 46 149 0 13 -227 57 -238 47 -3 -3 -9 -23 -13 -43 l-8 -38 3 42 c3 29 0
43 -10 47 -8 3 -68 8 -134 12 l-120 7 0 -152z m257 -8 c-3 -10 -5 -2 -5 17 0
19 2 27 5 18 2 -10 2 -26 0 -35z m-12 -88 c-4 -31 -9 -54 -12 -51 -3 2 -1 30
2 61 4 31 9 54 12 51 3 -2 1 -30 -2 -61z"/>
<path d="M2149 2141 c-30 -15 -87 -53 -122 -81 -4 -4 3 -33 17 -64 24 -54 27
-56 48 -45 20 11 128 78 137 85 4 3 -29 107 -38 116 -3 3 -22 -1 -42 -11z"/>
<path d="M3787 2107 c-9 -30 -17 -58 -17 -64 0 -10 149 -108 154 -102 13 14
46 92 46 106 0 10 -10 25 -22 33 -62 39 -133 80 -138 80 -4 0 -14 -24 -23 -53z"/>
<path d="M2351 2070 c-41 -16 -80 -35 -87 -42 -10 -10 -4 -31 30 -103 75 -160
85 -177 104 -169 9 4 48 18 85 32 37 14 67 30 65 36 -2 7 -21 71 -43 144 -46
152 -39 147 -154 102z"/>
<path d="M3500 1998 c-17 -57 -38 -120 -46 -141 -17 -45 -17 -47 -3 -47 6 0
44 -13 86 -30 41 -16 76 -30 79 -30 6 0 82 153 104 212 24 65 25 74 3 81 -10
3 -49 17 -88 31 -38 14 -77 26 -87 26 -12 0 -24 -26 -48 -102z"/>
<path d="M1826 2008 c-9 -21 -16 -53 -16 -72 0 -36 27 -116 39 -116 3 0 14 25
23 54 17 54 17 55 -7 113 l-24 58 -15 -37z"/>
<path d="M1968 2003 c-60 -63 -64 -78 -37 -134 12 -27 26 -49 29 -49 4 0 28
24 54 54 l46 55 -24 55 c-14 31 -26 56 -28 56 -2 0 -20 -17 -40 -37z"/>
<path d="M3961 1989 c-26 -63 -26 -70 -3 -90 9 -8 29 -30 43 -48 31 -39 41
-36 70 21 16 32 19 46 10 64 -12 26 -80 104 -91 104 -4 0 -17 -23 -29 -51z"/>
<path d="M2193 1995 c-23 -13 -58 -36 -78 -51 l-35 -27 26 -46 c48 -83 128
-201 136 -201 13 0 118 72 118 81 0 5 -20 48 -43 96 -24 48 -50 104 -57 123
-19 51 -21 52 -67 25z"/>
<path d="M3736 1967 c-14 -30 -43 -91 -65 -137 -23 -46 -40 -84 -39 -86 22
-20 114 -74 123 -71 13 6 90 119 131 194 l29 53 -30 24 c-16 14 -51 37 -78 51
l-47 26 -24 -54z"/>
<path d="M2022 1863 c-51 -59 -51 -74 2 -150 26 -38 64 -88 86 -113 l39 -45
16 23 c9 12 28 34 43 47 l26 24 -56 83 c-30 46 -65 102 -78 126 -13 23 -29 42
-35 42 -6 0 -25 -17 -43 -37z"/>
<path d="M3889 1843 c-18 -32 -52 -86 -76 -119 -24 -34 -43 -65 -43 -70 0 -5
18 -29 39 -54 l39 -45 23 25 c38 44 128 168 140 194 10 22 7 31 -26 75 -20 28
-43 51 -50 51 -7 0 -28 -26 -46 -57z"/>
<path d="M1885 1881 c-3 -5 -9 -31 -14 -56 -8 -40 -5 -52 16 -91 14 -24 26
-44 28 -44 2 0 11 23 20 51 17 50 17 52 -6 100 -22 49 -32 58 -44 40z"/>
<path d="M4069 1843 c-18 -43 -19 -54 -9 -100 6 -29 15 -53 19 -53 12 0 51 76
51 100 0 33 -22 100 -32 100 -5 0 -18 -21 -29 -47z"/>
<path d="M2818 1853 c-31 -3 -38 -8 -39 -26 -1 -17 -2 -18 -6 -4 -3 10 -14 17
-29 17 -43 0 -164 -31 -164 -42 0 -15 88 -222 103 -243 12 -15 19 -16 73 -5
32 7 62 14 65 16 3 2 0 27 -8 56 -7 29 -12 60 -10 68 1 8 9 -14 18 -50 l15
-65 45 -3 c24 -2 58 -1 76 3 l33 6 0 139 0 140 -67 -2 c-38 -1 -85 -3 -105 -5z
m-31 -85 c-3 -8 -6 -5 -6 6 -1 11 2 17 5 13 3 -3 4 -12 1 -19z m10 -50 c-3 -7
-5 -2 -5 12 0 14 2 19 5 13 2 -7 2 -19 0 -25z"/>
<path d="M3000 1727 c0 -158 -1 -157 98 -157 l60 0 11 38 10 37 -5 -41 -5 -41
57 -11 c79 -16 78 -17 99 26 31 65 95 225 91 229 -9 9 -165 35 -178 30 -9 -3
-20 -35 -28 -79 -7 -40 -15 -68 -17 -62 -2 6 3 40 11 77 7 37 10 69 6 72 -4 3
-53 8 -109 11 l-101 7 0 -136z m187 -69 c-3 -8 -6 -5 -6 6 -1 11 2 17 5 13 3
-3 4 -12 1 -19z"/>
<path d="M2470 1770 c-48 -18 -74 -33 -72 -42 5 -18 104 -165 139 -206 l28
-32 50 19 c27 10 51 23 53 29 2 6 -7 30 -19 54 -12 24 -37 79 -55 123 -17 43
-36 80 -40 82 -5 1 -43 -11 -84 -27z"/>
<path d="M3405 1728 c-15 -40 -41 -99 -57 -130 -15 -32 -28 -59 -28 -62 0 -2
25 -14 57 -27 l56 -23 24 30 c37 45 143 204 143 215 0 11 -128 64 -166 69 0 0
-13 -33 -29 -72z"/>
<path d="M1955 1761 c-3 -5 -9 -30 -14 -56 -8 -44 -7 -49 30 -98 37 -50 129
-147 139 -147 3 0 11 19 18 41 14 44 15 41 -42 104 -10 11 -40 53 -67 93 -52
75 -54 78 -64 63z"/>
<path d="M3996 1724 c-16 -26 -54 -76 -83 -112 -50 -60 -54 -69 -48 -102 11
-60 22 -60 83 5 93 99 112 128 112 168 0 28 -19 87 -28 87 -4 0 -20 -21 -36
-46z"/>
<path d="M1870 1713 c1 -5 12 -28 25 -53 15 -28 24 -38 25 -26 0 10 -9 34 -21
52 -20 33 -29 42 -29 27z"/>
<path d="M2308 1689 c-27 -17 -48 -37 -48 -43 0 -7 45 -59 99 -116 88 -94 101
-104 118 -92 10 6 28 16 41 22 12 5 22 15 22 21 0 7 -24 44 -53 83 -29 39 -64
90 -77 114 -13 23 -31 42 -39 42 -9 0 -37 -14 -63 -31z"/>
<path d="M3562 1643 c-27 -43 -64 -97 -81 -120 l-32 -42 40 -26 c22 -14 45
-25 49 -25 16 0 202 203 202 220 0 11 -96 70 -114 70 -8 0 -36 -35 -64 -77z"/>
<path d="M4090 1671 c-11 -23 -16 -41 -10 -41 12 0 44 69 36 77 -2 3 -14 -13
-26 -36z"/>
<path d="M3710 1587 c-25 -29 -71 -78 -103 -110 l-58 -58 21 -30 c23 -31 41
-36 62 -16 7 6 29 23 48 36 62 44 150 125 150 139 0 7 -17 30 -37 52 l-38 39
-45 -52z"/>
<path d="M2195 1589 l-40 -41 65 -59 c36 -32 91 -77 122 -99 l56 -40 25 32 25
31 -101 109 c-56 59 -104 108 -107 108 -3 0 -24 -18 -45 -41z"/>
<path d="M4025 1584 c-17 -21 -56 -66 -88 -100 -43 -45 -59 -72 -64 -100 l-6
-38 29 23 c48 38 116 123 141 179 32 67 25 85 -12 36z"/>
<path d="M1940 1598 c1 -29 41 -97 97 -163 68 -81 92 -93 85 -43 -3 23 -23 52
-67 98 -34 36 -70 77 -79 93 -19 28 -36 36 -36 15z"/>
<path d="M2861 1551 c-11 -7 -10 -21 9 -82 35 -116 55 -149 90 -149 l30 0 0
120 0 120 -57 0 c-32 0 -64 -4 -72 -9z"/>
<path d="M3000 1456 c0 -124 3 -136 40 -136 24 0 31 8 53 58 14 31 32 83 40
114 17 67 17 68 -74 68 l-59 0 0 -104z"/>
<path d="M2765 1539 c-69 -16 -68 -14 -44 -61 27 -53 92 -150 110 -165 8 -6
29 -8 47 -6 26 4 32 9 28 22 -45 138 -77 216 -88 218 -7 0 -31 -3 -53 -8z"/>
<path d="M3126 1435 c-21 -64 -37 -117 -35 -119 2 -2 18 -6 36 -9 29 -6 34 -2
67 43 42 58 96 152 96 167 0 8 -90 33 -119 33 -3 0 -24 -52 -45 -115z"/>
<path d="M2142 1505 c-24 -52 -16 -70 56 -123 64 -47 153 -102 164 -102 4 0
11 13 16 29 10 28 8 31 -56 79 -37 28 -81 63 -97 79 -70 66 -70 66 -83 38z"/>
<path d="M2625 1498 c-27 -11 -51 -21 -53 -22 -6 -7 191 -191 209 -194 36 -6
32 26 -14 95 -24 37 -52 82 -61 100 -9 17 -19 34 -23 36 -5 2 -30 -5 -58 -15z"/>
<path d="M3775 1467 c-34 -28 -84 -69 -113 -90 -46 -34 -51 -42 -46 -65 4 -15
9 -29 11 -32 9 -10 180 98 226 144 9 9 14 22 12 29 -2 7 -6 24 -9 40 -4 15
-10 27 -14 27 -4 0 -34 -24 -67 -53z"/>
<path d="M3286 1473 c-10 -21 -39 -69 -64 -106 -37 -56 -43 -70 -31 -78 8 -5
21 -9 29 -9 14 0 200 178 200 192 0 10 -67 38 -92 38 -18 0 -29 -9 -42 -37z"/>
<path d="M2524 1451 c-18 -11 -35 -24 -38 -29 -13 -22 202 -175 238 -170 11 2
21 8 23 13 2 6 -41 54 -95 108 l-97 97 -31 -19z"/>
<path d="M3341 1367 c-89 -91 -98 -103 -81 -111 12 -5 30 -4 47 3 37 15 207
143 206 156 0 5 -16 19 -36 32 l-35 22 -101 -102z"/>
<path d="M2135 1388 c17 -60 29 -75 88 -110 84 -49 148 -80 153 -75 16 15 -13
55 -58 82 -28 17 -80 51 -115 78 -35 26 -66 47 -69 47 -3 0 -2 -10 1 -22z"/>
<path d="M3784 1355 c-39 -27 -92 -62 -118 -77 -35 -21 -46 -33 -46 -53 0 -14
2 -25 5 -25 10 0 133 65 171 91 40 27 69 74 62 101 -2 10 -25 -2 -74 -37z"/>
<path d="M2438 1383 c-8 -10 -18 -23 -22 -30 -11 -21 239 -151 270 -139 26 10
15 24 -48 62 -34 21 -86 57 -115 81 -59 49 -64 50 -85 26z"/>
<path d="M3475 1358 c-27 -22 -77 -59 -110 -80 -62 -40 -77 -65 -37 -61 24 3
151 61 219 100 l42 25 -21 29 c-12 16 -27 29 -32 29 -6 -1 -33 -19 -61 -42z"/>
<path d="M2394 1314 c-2 -8 -6 -21 -9 -29 -7 -22 18 -36 174 -96 13 -5 21 -12
19 -15 -3 -3 -45 11 -94 30 -102 42 -94 40 -94 23 0 -29 29 -47 110 -71 90
-27 82 -36 -10 -11 -62 16 -72 13 -44 -16 13 -12 54 -27 110 -39 88 -20 88
-20 26 -15 -39 3 -61 1 -57 -5 10 -16 77 -30 143 -30 63 0 84 15 35 26 -42 9
-50 12 -30 13 29 1 14 26 -19 29 -16 2 -33 8 -39 14 -7 7 0 9 23 5 38 -8 46
16 10 28 l-23 8 23 4 c12 2 22 10 21 16 0 7 -61 42 -135 79 -102 50 -136 63
-140 52z m221 -144 c3 -5 1 -10 -4 -10 -6 0 -11 5 -11 10 0 6 2 10 4 10 3 0 8
-4 11 -10z"/>
<path d="M3450 1254 c-124 -64 -151 -84 -111 -84 28 0 27 -16 -1 -24 -16 -4
-20 -8 -12 -16 12 -12 63 -3 186 32 59 18 80 28 88 47 15 33 6 37 -38 17 -47
-23 -161 -66 -174 -66 -19 0 3 18 29 25 57 14 193 78 193 90 0 23 -12 45 -24
44 -6 -1 -67 -30 -136 -65z"/>
<path d="M2865 1286 c-104 -26 -175 -82 -175 -138 0 -15 15 -39 37 -62 63 -63
215 -96 353 -76 208 29 293 155 158 234 -90 52 -255 71 -373 42z"/>
<path d="M2239 1229 c37 -33 153 -99 175 -99 4 0 2 9 -4 20 -6 11 -48 39 -93
61 -45 22 -86 44 -91 50 -6 5 -15 9 -20 9 -6 -1 9 -19 33 -41z"/>
<path d="M3694 1220 c-83 -41 -124 -73 -110 -87 8 -9 129 56 171 91 22 19 38
36 35 38 -3 2 -46 -17 -96 -42z"/>
<path d="M3521 1149 c-13 -5 -64 -17 -114 -28 -52 -10 -93 -23 -95 -31 -4 -10
10 -12 64 -6 101 9 165 28 182 54 16 25 6 28 -37 11z"/>
<path d="M2437 1099 c7 -7 15 -10 18 -7 3 3 -2 9 -12 12 -14 6 -15 5 -6 -5z"/>
<path d="M3380 1073 c-79 -4 -110 -10 -110 -23 0 -13 115 -13 163 1 34 9 54
32 25 27 -7 -1 -42 -3 -78 -5z"/>
<path d="M2644 1019 c-11 -18 119 -26 145 -10 12 8 10 11 -10 16 -29 7 -129 2
-135 -6z"/>
<path d="M3212 1024 c-45 -19 67 -32 128 -15 23 6 23 8 5 12 -28 7 -117 9
-133 3z"/>
<path d="M2792 992 c-19 -13 48 -23 186 -28 84 -2 112 0 112 9 0 9 -22 12 -72
12 -40 0 -104 4 -143 8 -40 4 -76 4 -83 -1z"/>
<path d="M3115 991 c-10 -17 14 -22 61 -15 31 4 42 9 33 15 -19 12 -86 11 -94
0z"/>
<path d="M4815 468 c-28 -16 -35 -28 -35 -65 0 -67 82 -99 127 -50 17 18 40
108 24 92 -2 -3 -14 3 -25 12 -21 18 -21 18 -3 -3 22 -27 22 -67 -1 -87 -27
-25 -78 -22 -96 5 -31 44 -12 85 44 98 28 6 30 8 10 9 -14 0 -34 -5 -45 -11z"/>
<path d="M4832 444 c-30 -21 -29 -61 2 -76 31 -13 51 -6 67 24 12 23 12 23 -9
5 -11 -10 -29 -17 -39 -15 -25 5 -29 46 -6 63 25 20 13 19 -15 -1z"/>
<path d="M5625 391 c-9 -28 5 -51 30 -51 25 0 39 23 30 51 -8 25 -52 25 -60 0z"/>
<path d="M5820 345 c0 -9 5 -15 11 -13 6 2 11 8 11 13 0 5 -5 11 -11 13 -6 2
-11 -4 -11 -13z"/>
</g>
</svg>
