<?xml version="1.0" encoding="UTF-8"?>
<svg version="1.1" viewBox="0 0 1200 876" width="300" height="219" xmlns="http://www.w3.org/2000/svg">
<path transform="translate(0)" d="m0 0h1200v876h-1200z" fill="#FDFDFD"/>
<path transform="translate(598,221)" d="m0 0 24 1 25 3 26 6 20 7 16 7 16 8 20 13 14 10 11 9 5 4v2l4 2 15 16 8 10 9 12 10 15 10 19 11 27 6 21 3 15 10 3 28 11 18 8 23 12 14 10 8 7 6 9 2 5v10l-4 7-10 8-20 8-23 5-23 3h-12l-3-4 1-5 31-5 28-6 14-6 5-4 2-4v-7l-5-8-7-7-15-10-16-8-15-7-31-12-5-1 2 4 1 15v33l-3 24-4 20-6 20-8 21-8 16-10 18-11 15-8 10-11 12-16 16-12 10-17 12-22 13-14 7-18 7-18 6-18 4-18 3-25 2h-15l-23-2-27-5-19-5-21-8-15-7-18-10-12-8-15-11-12-11-19-19-7-8-10-13-11-17-10-19-5-10-11-33-4-16-2-12v-9l2-3 1 1 2 17 2 3 1 8 3 7 3 9 1 11 6 15 8 16 4 4 8 17 11 15 9 10 13 13 3 5 1 2 5-1 3 2v2h-3l5 5 12 11 16 9 11 6 13 9 6 3 1 2 5-1 12 5 33 2 3 2h-28l14 4 20 3 12 3 14 2h36l3-1-1-4-9 1h-21l-20-3-12-2v-2l-9-3-9-9-3-4-4-10-16-4-24-8-17-8v10l-2-1-1-10-9-6-12-7-17-12-5-4 1-2 13 9 17 11 11 6 1-2 1-6 1-2h2l-5-5-16-12-13-11-9-8v-2l4 1 15 14 16 12 7 5h2l6-8 4-4-2-4-8-7-16-16-7-8-8-10-4-2-1-4-13-19-12-19-5-9v-2l-5 3-10 11-5 7 2 6 8 12 12 16 8 10-3 1-8-9-10-13-9-14-3-5-2-1-3-8v-3h2l3 6 4-4 7-9 6-7 3-2v-4l5-1 15-10 12-7 2 1v2l-22 13-6 4 1 6 10 18 14 21 7 9 8-6 14-9 1-4-15-30-5-11 1-5 2 3 14 30 8 14 20-8 9-2v3l-27 9 3 7 9 14 12 17 6 8 2 5 6-1 19-8 4-1 11-2 16-2-8-34-3-16v-6l2 1 11 49 1 5 18-2h13v-58h-8v-1l8-1 3-2 2 1 35 2h7l3-21 6-40-21-1-32-2v-1l13-1h11l24 2 6 1 1-15 2-14h-12l-43-2v-1l11-1v-1h12l32 2 3-30-39-3h-21l-1 1-1 29h-1v-31l-36 2-24 2 2 25v6l17-2 14-1h13v1l10 1v1l-28 1-25 2 3 27 29-2 13-1h13l-1 3-47 3-6 1 5 40h-3l-5-35-1-4-26 4-18 4-4-1h2v-2l27-6 19-3-3-27h-5l-1-3 5-1-2-30-26 4-22 5-6-1 4-2 32-7 12-2h6l-1-7-1-31-10-2-48-4-3-3-18 4-24 10-16 8-20 12-9 7-1 2-4 1v-15l2-15 4-14-8 3-6 8-3 3-2 3h-3l3-10 3-6-30 2-23 3-20 4-15 5-10 6-3 5 1 9 6 8 8 7 15 9 15 8 17 8 2 4-5 5-13-5-19-9-17-10-11-8-8-8-5-10v-13l6-8 10-6 11-5 23-6 26-4 31-2 13-1 12-19 7-10 10-13 14-15 14-14 11-9 17-12 20-12 21-10 3 1 2 1v2l-24 10-12 7-10 8-7 9-5 9-5 6-3 9h-2l-1 5-7 21 18-8 22-8 6-1 2-11 3-9h1l-1 11-2 8 15-4 29-6h10l-3 2-8 2-31 6-13 3-2 18-2 26h18l27-5 16-1 8-2 23-2 18-1h14v-49l-21 1h-18l2-2 6-1 18-1h13v-20l-32 1-12 1h-11l2-2 17-2h36v-15h-10l1-2h9l-1-22-1-2h2v-7l-46 4-27 7-14 5-6 1 1-3 19-7 14-4 14-3 27-3z" fill="#1F1C35"/>
<path transform="translate(473,365)" d="m0 0 4 1 13 1 1 2 35 3 10 2 1 1 1 38-28 5-22 5-1 1 11-2 31-6 9-1 1 1 2 30-1 3 2 4 2 18v6l-13 3-25 5-8 1v2l25-5 21-3 2 5 4 29 2 4-5-35 1-4 19-2 16-1h18v-2h-12l-37 3h-5l-1-1-2-19v-8l12-2 30-2v-1h-12l-25 2h-6l-2-18v-13l13-2 26-2h21l1 2 2-2h21l37 3 2 1-1 18-1 12-2 1-31-2h-7v1l39 3-1 14-2 15-16-1-14-1h-11l40 4v8l-7 43-1 10-1 1-22-1-20-1-3-1-2 3v58l-25 2h-6l-3-10-10-44 1 10 7 33 2 8v4l-24 5h-6l-8 4-14 6-4-1-7-11-8-10-10-15-7-11v-4l20-8 6-2-2-1-19 7-7 3-5-8-9-17-9-20-1-1 1 5 16 33 3 6-1 4-10 7-9 6-4 3-6-7-12-18-9-15-6-11 1-5 21-13 6-4h-2l-16 9-11 8-4-1 1 4-5 4-9 11-6 8-3-3-1-4h-2l3 7v4l4 2 8 14 10 13 10 12h2l-9-11-13-18-8-13 2-5 10-11 6-7h3l9 16 7 11 8 12 8 11v3l5 3 8 10 15 16 12 12 5 4-2 5-3 1-2 4-4 5-4-2-13-9-11-9-13-12-3-1 13 13 14 11 14 10 2 4h-2l-1 10-2 1-11-6-14-9-16-11 5 5 24 16 12 7 2 2 1 10 1-9 6 2 19 8 24 7 8 2 7 14 5 5 4 3v2l7 1 3 3 23 4 8 1h30l2 5-4 1h-36l-24-4-6-2-20-3-10-3-1-2h26l-33-2-16-6-1 2-1-3-6-2-10-7-8-5-14-7-10-7-10-9-5-5v-3l3 2-3-3-5 1-6-9-19-19-13-18-8-17-5-5-7-15-6-15-1-11-5-15-1-1-1-8-2-3-2-17-2 6h-1l-2-19v-32l3-24 6-28 7-21 1-2h4l1-4h2l4-6 5-6 7-1-2 9-2 10-1 10v14h3l2-4 13-9 15-9 16-8 19-8 10-3z" fill="#1F1D35"/>
<path transform="translate(598,221)" d="m0 0 24 1 25 3 26 6 20 7 16 7 16 8 20 13 14 10 11 9 5 4v2l4 2 15 16 8 10 9 12 10 15 10 19 11 27 6 21 3 15 10 3 28 11 18 8 23 12 14 10 8 7 6 9 2 5v10l-4 7-10 8-20 8-23 5-23 3h-12l-3-4 1-5 31-5 28-6 14-6 5-4 2-4v-7l-5-8-7-7-15-10-16-8-15-7-31-12-5-1 2 4v11l-2 4h-2l-1-7h-2l-5 31-4 15-3-3 3-10 3-16 2-14v-13l-5-7-11-4h-5l-2 13-3 3 1-18-19-6-19-5v-2l-4 1-48-12-2 21-3-4 1-17-15-4-38-7-3-1-1 19 12 2-1 3-11-1-1 4-2 27 12 1 1 3-11-1-3-1-2 28 34 6 10 2-2 1v2l-26-5-17-2-9 58-2-4 1-10 7-46-21-1-32-2v-1l13-1h11l24 2 6 1 1-15 2-14h-12l-43-2v-1l11-1v-1h12l32 2 3-30-39-3h-21l-1 1-1 29h-1v-31l-36 2-24 2 2 25v6l17-2 14-1h13v1l10 1v1l-28 1-25 2 3 27 29-2 13-1h13l-1 3-47 3-6 1 5 40h-3l-5-35-1-4-26 4-18 4-4-1h2v-2l27-6 19-3-3-27h-5l-1-3 5-1-2-30-26 4-22 5-6-1 4-2 32-7 12-2h6l-1-7-1-31-10-2-48-4-3-3-18 4-24 10-16 8-20 12-9 7-1 2-4 1v-15l2-15 4-14-8 3-6 8-3 3-2 3h-3l3-10 3-6-30 2-23 3-20 4-15 5-10 6-3 5 1 9 6 8 8 7 15 9 15 8 17 8 2 4-5 5-13-5-19-9-17-10-11-8-8-8-5-10v-13l6-8 10-6 11-5 23-6 26-4 31-2 13-1 12-19 7-10 10-13 14-15 14-14 11-9 17-12 20-12 21-10 3 1 2 1v2l-24 10-12 7-10 8-7 9-5 9-5 6-3 9h-2l-1 5-7 21 18-8 22-8 6-1 2-11 3-9h1l-1 11-2 8 15-4 29-6h10l-3 2-8 2-31 6-13 3-2 18-2 26h18l27-5 16-1 8-2 23-2 18-1h14v-49l-21 1h-18l2-2 6-1 18-1h13v-20l-32 1-12 1h-11l2-2 17-2h36v-15h-10l1-2h9l-1-22-1-2h2v-7l-46 4-27 7-14 5-6 1 1-3 19-7 14-4 14-3 27-3z" fill="#28263A"/>
<path transform="translate(1084,384)" d="m0 0 6 4 21 21 7 8 13 15 13 17 10 15 11 19 11 21 10 26 6 25 3 20 1 16v12l-3 25-5 22-8 22-12 23-8 12-12 16-11 12-19 19-14 11-13 10-20 13-16 9-27 14-20 9-19 7-33 11-29 8-37 8-38 6-47 5-37 2h-42l-46-2-46-4-40-5-36-6-37-8-32-8-39-11-33-11-36-13-41-17-10-5 2-1 43 14 33 10 35 9 36 8 39 7 49 7 49 4 20 1h76l41-3 50-6 39-7 40-10 30-9 31-12 27-12 16-8 17-9 19-12 16-11 16-13 8-7 15-14 2-3h2l2-4 9-10 14-19 11-19 8-16 7-19 5-19 4-22 1-17v-14l-2-26-6-28-5-17-10-25-9-19-10-17-11-16-5-7z" fill="#160B3D"/>
<path transform="translate(506,57)" d="m0 0h60l40 2 52 5 42 6 41 8 41 9 37 10 35 11 13 5-4 1-28-7-41-9-28-5-39-5-41-4-44-2h-61l-45 2-44 4-35 5-42 8-36 9-39 12-35 13-21 9-16 8-25 13-20 12-12 8-18 13-11 9-14 12-23 23-11 14-10 13-13 21-11 23-7 20-5 19-3 21-1 11v22l3 26 6 27 8 23 11 24 9 16 9 14 8 11 12 14 6 8-1 2-13-12-8-7-20-18-18-18-9-11-10-12-11-16-11-18-12-25-7-20-5-19-3-18-1-10v-27l4-26 7-25 9-21 9-17 12-18 12-14 7-8 11-12 14-13 11-9 18-14 20-13 17-10 18-10 27-13 35-14 36-12 28-8 38-9 39-7 46-6 23-2z" fill="#4C2DDF"/>
<path transform="translate(986,355)" d="m0 0 5 2 17 16 16 17 10 11 13 17 10 15 12 21 9 20 8 25 4 19 2 26-1 20-3 18-7 24-9 20-10 17-12 16-13 15-13 13-11 9-15 12-23 15-18 10-17 9-32 14-35 12-37 10-34 7-38 6-27 3-33 2-25 1h-34l-40-2-51-5-34-5-55-11-46-12-41-13-31-11-24-10-4-3 5 1 30 9 41 11 31 7 39 7 53 7 39 3 22 1h36l47-2 41-4 28-4 32-6 44-11 36-12 27-11 25-12 17-9 21-13 14-10 16-13 10-9 19-19 12-16 9-13 13-25 6-15 6-23 3-16 1-14v-17l-2-23-5-24-9-27-14-29-11-18-9-12z" fill="#160C3D"/>
<path transform="translate(588,121)" d="m0 0h58l38 2 37 4 34 5 42 8 36 8 30 8 18 6v1l-10-1-29-6-39-7-34-4-50-3-22-1h-45l-51 3-46 5-32 5-34 7-28 7-35 11-29 11-28 12-16 8-24 13-19 12-17 12-13 10-14 12-21 21-7 8-10 13-12 18-10 18-10 26-5 19-3 20v38l4 24 5 19 8 21 10 21 13 21 9 12 9 11 9 10 1 3-4-2-28-24-8-7-22-22v-2h-2l-8-10-14-19-12-20-9-19-8-24-4-19-2-15v-24l3-23 6-21 6-16 8-16 8-13 11-15 9-11 11-12 11-11 8-7 12-10 14-10 15-10 20-12 24-13 20-9 30-12 35-12 33-9 37-8 37-6 40-5 26-2z" fill="#4C2DDF"/>
<path transform="translate(353,502)" d="m0 0 2 1 2 17 2 3 1 8 3 7 3 9 1 11 6 15 8 16 4 4 8 17 11 15 9 10 13 13 3 5 1 2 5-1 3 2v2h-3l5 5 12 11 16 9 11 6 13 9 6 3 1 2 5-1 12 5 33 2 3 2h-28l14 4 20 3 12 3 14 2h36l3-1-1-4-9 1h-21l-20-3-12-2v-2l-9-3-9-9-3-4-4-10-16-4-24-8-17-8v10l-2-1-1-10-9-6-12-7-17-12-5-4 1-2 13 9 17 11 11 6 1-2 1-6 1-2h2l-5-5-16-12-13-11-9-8v-2l4 1 15 14 16 12 7 5h2l6-8 4-4-2-4-8-7-16-16-7-8-8-10-4-2-1-4-13-19-12-19-5-9v-2l-5 3-10 11-5 7 2 6 8 12 12 16 8 10-3 1-8-9-10-13-9-14-3-5-2-1-3-8v-3h2l3 6 4-4 7-9 6-7 3-2v-4l5-1 15-10 12-7 2 1v2l-22 13-6 4 1 6 10 18 14 21 7 9 8-6 14-9 1-4-15-30-5-11 1-5 2 3 14 30 8 14 20-8 9-2v3l-27 9 3 7 9 14 12 17 6 8 2 5 6-1 19-8 4-1 11-2 16-2-8-34-3-16v-6l2 1 11 49 1 5 18-2h13v-58h-8v-1l8-1 3-2 8 2v2h-8v57l25 2h5l6-23 6-29 2-1v7l-10 45-1 3 11 1 6 2v2l-18-2-6 20-7 19-3 8 2 1-5-1 3-9 9-25 3-9 1-6h-13l-16-1-1 2-1 44h-1v-46l-20 1-9 1 2 9 7 21 6 15-1 3-3-4-8-21-6-19v-3l-22 3-5 1 3 7 8 14 12 18 3 6-5 6-2 2-12 6-7 8-2 6v7l5 9 5 4 14 7 11 3 13 2h31l21-5 16-8 7-8 10-10-4 1-2-4 1-4 2-1-5-1-3-3 1-4 15-9 14-10 14-11 2-3-6 4-13 10-13 9-16 10-5-2-5-5 6-4 15-14 12-12 7-8 4-1v-5l9-10 12-17 13-21 4 1 12 7 9 6 1 3-8 9-7 8-3 4h-2l-2 4-10 10-2 4 23-23 7-8 5-7 4 1 7 8 7 10-5 8 3-3h2v-2l5 1 4 15 5-4 7-8h2l2-4 11-12 8-11 1-2h2v-4h2l1-2-1 7-1 6 1 1 8-16 3-8h2l1-7 4-2-2 9-6 15-12 22-9 14-12 16-14 15-15 15-12 10-17 12-22 13-14 7-18 7-18 6-18 4-18 3-25 2h-15l-23-2-27-5-19-5-21-8-15-7-18-10-12-8-15-11-12-11-19-19-7-8-10-13-11-17-10-19-5-10-11-33-4-16-2-12v-9z" fill="#211F36"/>
<path transform="translate(668,393)" d="m0 0 15 2 35 7 7 3-1 14 2-4 2-10 20 4 29 7h3v2l11 2 27 8 1 5-1 9 2-4 1-8 9 1 9 4 5 7v13l-4 26-3 12-1 3 2 2v6h-2l-1 7-6 14 1 9 5 13 1 3v7h-2l-5-18-4-5h-3l-2 6-6 11-3-1-7-9-6-7-5-4 1-6 7-16-1-1-7 17-4 2-11-8-15-9-4-2-1-3 6-18v-4l-7 20-1 2-4-1-27-10v2l5 1 19 7 5 3-1 7-13 29-11 21-6-1-22-8-8-3 2-9 6-19v-3l-3 8-7 20-4 1-36-7-1-3 9-58 4-1 24 4 16 4v-2l-24-5-18-3-1-5 3-24 11 1 3 1-1-2-12-2v-12l1-15 2-5 11 2v-2l-11-2-1-2 1-15z" fill="#262439"/>
<path transform="translate(587,225)" d="m0 0h14v7 2 22l-9 1 9 1v15l-36 1-17 2 21-1h32v20l-31 2-6 1h37v49l-46 3-13 2-5 1-15 1-27 5h-13l-5-1v-11l2-23 2-10 13-4 31-6 8-2h-7l-38 8-6 1 1-8 1-10-5 19-31 11-12 6h-3l4-16 4-10h2l2-9 6-7 5-9 7-9 11-9 15-8 18-7h2v-2l-3-1v-2h2v2l10-3 10-4 27-7z" fill="#2B293C"/>
<path transform="translate(504,241)" d="m0 0 3 1 2 1v2l-24 10-12 7-10 8-7 9-5 9-5 6-3 9h-2l-1 5-7 21 18-8 22-8 6-1 2-11 3-9h1l-1 11-2 8 15-4 29-6h10l-3 2-8 2-31 6-13 3-2 18-2 26h36l17-3h6 2l12-2 24-2 26-1 1 1 1 28-4 1-16-2h-13l-31-4 1 5 1 20v13l19-2 14-1h28l1-2 2 1 38 2 22 2 1-20h1l1 8v12l12 2-1 3-11-1-1 4-2 27 12 1 1 3-11-1-3-1-2 28 34 6 10 2-2 1v2l-26-5-17-2-9 58-2-4 1-10 7-46-21-1-32-2v-1l13-1h11l24 2 6 1 1-15 2-14h-12l-43-2v-1l11-1v-1h12l32 2 3-30-39-3h-21l-1 1-1 29h-1v-31l-36 2-24 2 2 25v6l17-2 14-1h13v1l10 1v1l-28 1-25 2 3 27 29-2 13-1h13l-1 3-47 3-6 1 5 40h-3l-5-35-1-4-26 4-18 4-4-1h2v-2l27-6 19-3-3-27h-5l-1-3 5-1-2-30-26 4-22 5-6-1 4-2 32-7 12-2h6l-1-7-1-31-10-2-48-4-3-3-18 4-24 10-16 8-20 12-9 7-1 2-4 1v-15l2-15 4-14-8 3-6 8-3 3-2 3h-3l3-10 3-6-30 2-23 3-20 4-15 5-10 6-3 5 1 9 6 8 8 7 15 9 15 8 17 8 2 4-5 5-13-5-19-9-17-10-11-8-8-8-5-10v-13l6-8 10-6 11-5 23-6 26-4 31-2 13-1 12-19 7-10 10-13 14-15 14-14 11-9 17-12 20-12z" fill="#565757"/>
<path transform="translate(598,221)" d="m0 0 24 1 25 3 26 6 20 7 16 7 16 8 20 13 14 10 11 9 5 4v2l4 2 15 16 8 10 9 12 10 15 10 19 11 27 6 21 3 15 10 3 28 11 18 8 23 12 14 10 8 7 6 9 2 5v10l-4 7-10 8-20 8-23 5-23 3h-12l-3-4 1-5 31-5 28-6 14-6 5-4 2-4v-7l-5-8-7-7-15-10-16-8-15-7-31-12-5-1 2 4v11l-2 4h-2l-1-7h-2l-5 31-4 15-3-3 3-10 3-16 2-14v-13l-5-7-11-4h-5l-2 13-3 3 1-18-19-6-19-5v-2l-4 1-32-8-14-3-3-4 1-5-3-1 2-29h1l1 15 1-14 20 6 27 11 3 3h3v2l6 2 16 10 14 10 2 3 1-1 1-3 9 9 5 3 8 2-5-24-6-16-5-9v-2h2l-4-8-6-11-9-14-3-4-1-3-3-3-4-6-3-1-8-11-13-13h2l1-2-4-2-9-9-16-12 1 4 5 8 3 3 1 5h-2l-5-6-8-4-18-7-14-4v3h-2l-3-5-29-6-19-3v6l-2-2-2-5-21-2-18-1h-14l-1 13 32 1 14 1 11 2v1h-15l-11-1-31-1v19h-1v-19l-33 1-12 1h-11l2-2 17-2h36v-15h-10l1-2h9l-1-22-1-2h2v-7l-46 4-27 7-14 5-6 1 1-3 19-7 14-4 14-3 27-3z" fill="#565758"/>
<path transform="translate(366,504)" d="m0 0h2l9 25v4h2l10 19v4l4 2 8 14 10 13 10 12h2l-9-11-13-18-8-13 2-5 10-11 6-7h3l9 16 7 11 8 12 8 11v3l5 3 8 10 15 16 12 12 5 4-2 5-3 1-2 4-4 5-4-2-13-9-11-9-13-12-3-1 13 13 14 11 14 10 2 4h-2l-1 10-2 1-11-6-14-9-16-11 5 5 24 16 12 7 2 2 1 10 1-9 6 2 19 8 24 7 8 2 7 14 5 5 4 3v2l7 1 3 3 23 4 8 1h30l2 5-4 1h-36l-24-4-6-2-20-3-10-3-1-2h26l-33-2-16-6-1 2-1-3-6-2-10-7-8-5-14-7-10-7-10-9-5-5v-3l3 2-3-3-5 1-6-9-19-19-13-18-8-17-5-5-7-15-6-15-1-11-5-15v-13l3-10z" fill="#2F2E3F"/>
<path transform="translate(602,299)" d="m0 0h1v48h16l32 2 15 2v-30h2l1 13v18l17 2 25 5 16 4v-24l2 2 2 23 26 9 19 8 6 3 22 13 15 11 3 3 2 5-4-1-5-5-24-16-8-4v-2l-4 1-4-4-31-12-13-4-1 13-2 3-1-2-1 13 2 1v6l1 2-2 10-1 11-3-4 1-17-15-4-38-7-3-1-1 7h-1l-1 12-3 1-35-3-23-1h-3l-28 1-26 2h-7l-2-38 15 1 16 2h13l19 2-1-28-26 1-31 3h-5l-1 2-1-1-12 1-11 2h-15l2-2 30-5h8l8-2 23-2 18-1h14v-30z" fill="#1E1C34"/>
<path transform="translate(900,58)" d="m0 0 5 5 7 10 12 17 11 14 11 11 13 9 12 5 6 1h10l15-3 15-6 17-9 17-11 16-10 3 1-28 19-17 13-13 12-10 14-4 8-2 10 1 15 4 15 7 16 7 12 8 13 7 11 4 7h-3l-14-20-10-14-12-14-10-9-13-8-13-4h-17l-15 4-16 8-16 9-18 12-9 5 1 8 8 15 9 10 14 9 10 4 9 2-4 2-14 5-12 7-5 5h-2l-2 4-8 11-5 12-2 10h-2l-4-15-7-13-9-10-9-7-14-7-12-3v-2l12-2 16-8 10-8 9-13 7-15v-4h6l11-7 14-10 11-8 10-8 10-10 9-13 4-9 1-5v-16l-3-12-6-16-9-17-7-11-11-17z" fill="#4C2EDE"/>
<path transform="translate(443,507)" d="m0 0 2 1v2l-22 13-6 4 1 6 10 18 14 21 7 9 8-6 14-9 1-4-15-30-5-11 1-5 2 3 14 30 8 14 20-8 9-2v3l-27 9 3 7 9 14 12 17 6 8 2 5 6-1 19-8 4-1 11-2 16-2-8-34-3-16v-6l2 1 11 49 1 5 18-2h13v-58h-8v-1l8-1 3-2 8 2v2h-8v57l25 2h5l6-23 6-29 2-1v7l-10 45-1 3 11 1 6 2v2l-18-2-6 20-7 19-3 8 2 1-5-1 3-9 9-25 3-9 1-6h-13l-16-1-1 2-1 44h-1v-46l-20 1-9 1 2 9 7 21 6 15-1 3-3-4-8-21-6-19v-3l-22 3-5 1 3 7 8 14 12 18 3 6-5 6-2 2-12 6-7 8-3 11-3 3-1-4-16-4-24-8-17-8v10l-2-1-1-10-9-6-12-7-17-12-5-4 1-2 13 9 17 11 11 6 1-2 1-6 1-2h2l-5-5-16-12-13-11-9-8v-2l4 1 15 14 16 12 7 5h2l6-8 4-4-2-4-8-7-16-16-7-8-8-10-4-2-1-4-13-19-12-19-5-9v-2l-5 3-10 11-5 7 2 6 8 12 12 16 8 10-3 1-8-9-10-13-9-14-3-5-2-1-3-8v-3h2l3 6 4-4 7-9 6-7 3-2v-4l5-1 15-10z" fill="#252339"/>
<path transform="translate(592,654)" d="m0 0h21l14 2 16 5 10 5 8 7 4 7 1 6-3 9-7 7-16 8-21 5h-31l-18-3-13-5-10-6-7-9-1-3v-7l3-7 7-8 16-8 18-4z" fill="#FEFEFE"/>
<path transform="translate(183,620)" d="m0 0 4 4 14 24 8 12 8 11 9 10 7 7 14 8 12 2 16-1 16-4 16-7 40-20 3 1-23 13-20 12-12 9-8 7h-2l-2 4-6 7-6 12-2 9v14l4 18 8 20 8 16 10 19 1 4-5-5-17-28-11-16-12-14-10-8-10-5-10-2h-13l-18 4-13 5-19 9-22 12-8 2 3-3 17-9 16-10 14-9 10-8 3-3h2l1-3 5-5 7-12 3-10v-17l-5-21-7-16-18-36z" fill="#170C3D"/>
<path transform="translate(875,219)" d="m0 0 2 2-9 5 1 8 8 15 9 10 14 9 10 4 9 2-4 2-14 5-12 7-5 5h-2l-2 4-8 11-5 12-2 10h-2l-4-15-7-13-9-10-9-7-14-7-12-3v-2l12-2 16-8 10-8 9-13 7-15v-4h6z" fill="#575859"/>
<path transform="translate(847,452)" d="m0 0h2l1 7 2-1 2-3 1 4v33l-3 24-4 20-6 20-1 2-4 2-2 7h-2l-3 11-8 15-2-3 1-6 1-5h-2v4h-2l-2 5-9 11-10 11-5 5-6 7-5 3-4-16-1-3 9-11 9-10 9-13 9-14h2v-5l6-10 5-10 4 4 4 13 1 7h2l-3-14-5-12v-6l6-14 2-7h2v-10l4-17 4-23z" fill="#41414A"/>
<path transform="translate(604,476)" d="m0 0h20l33 3v8l-7 43-1 10-1 1-22-1-20-1-3-2v-59z" fill="#FEFEFE"/>
<path transform="translate(604,298)" d="m0 0h21l37 3 3 1 1 16v33l-63-4v-48z" fill="#FEFEFE"/>
<path transform="translate(583,476)" d="m0 0h18v62l-38 3h-6l-2-6-8-52 1-4 19-2z" fill="#FEFEFE"/>
<path transform="translate(580,298)" d="m0 0h21v49l-46 3-17 1v-21l1-21 1-7 24-3z" fill="#FEFEFE"/>
<path transform="translate(660,480)" d="m0 0 22 3 23 5 4 2-8 28-10 30-4 1-36-7-1-3 9-58z" fill="#FEFEFE"/>
<path transform="translate(668,302)" d="m0 0 36 6 18 5 3 2 2 28v20l-7-1-28-6-21-3-2-1-2-49z" fill="#FEFEFE"/>
<path transform="translate(542,480)" d="m0 0 3 1 4 25 5 31v5l-31 6-9 1-7-19-11-37v-4l27-6z" fill="#FEFEFE"/>
<path transform="translate(531,303)" d="m0 0h7l-2 48-6 2-30 5-5 1h-13l-5-1v-11l2-23 2-10 13-4 31-6z" fill="#FEFEFE"/>
<path transform="translate(468,369)" d="m0 0h5l1 1 5 52v3l-29 10-16 7h-3l-3-22-2-27v-6l4-3 33-13z" fill="#FEFEFE"/>
<path transform="translate(714,274)" d="m0 0 8 1 29 11 8 7v2h2l-3-6-5-6-4-9 5 2 16 13 8 8 2 1-1 3 14 14 5 7v2l-5-1-4-2v2l4 2 6 4 5 7 5 14-3 1-14-10-17-9v-2l-5-1-23-9-20-7-3-6-3-15 6 1v-3l-6-1-3-4-4-9z" fill="#242238"/>
<path transform="translate(477,368)" d="m0 0 49 4 10 2 1 1 1 38-28 5-26 6-3-1-5-53z" fill="#FEFEFE"/>
<path transform="translate(711,491)" d="m0 0 8 1 30 11 5 3-1 7-13 29-11 21-6-1-22-8-8-3 2-9 9-28z" fill="#FEFEFE"/>
<path transform="translate(489,491)" d="m0 0 5 1 10 34 8 23v2l-26 9-9 4-5-8-9-17-10-23-3-6 2-5 14-6z" fill="#FEFEFE"/>
<path transform="translate(603,225)" d="m0 0h14l21 2 5 2 4 3-1-4 20 4 16 5 5 3-3 1h-5l12 3 8 10 7 10 2 5-31-6-16-2-3-5-2-6-1 2 2 7-53-3-1-1z" fill="#FEFEFE"/>
<path transform="translate(434,656)" d="m0 0 7 2 14 7 17 9 6 2v-10l6 2 19 8 24 7 8 2 7 14 5 5 4 3v2l7 1 3 3 23 4 8 1h30l2 5-4 1h-36l-24-4-6-2-20-3-10-3-1-2h26l-33-2-16-6-1 2-1-3-6-2-10-7-8-5-14-7-10-7-10-9-5-5z" fill="#333242"/>
<path transform="translate(443,507)" d="m0 0 2 1v2l-22 13-6 4 1 6 10 18 14 21 7 9 8-6 14-9 1-4-15-30-5-11 1-5 2 3 14 30 8 14 20-8 9-2v3l-27 9 3 7 9 14 12 17 6 8 2 5 6-1 19-8 4-1 11-2 16-2-8-34-3-16v-6l2 1 11 49 1 5 18-2h13v-58h-8v-1l8-1 3-2 8 2v2h-8v57l25 2h5l6-23 6-29 2-1v7l-10 45-1 3 11 1 6 2v2l-18-2-6 20-7 19-3 8 2 1-5-1 3-9 9-25 3-9 1-6h-13l-16-1-1 2-1 44h-1v-46l-20 1-9 1 2 9 7 21 6 15-1 3-3-4-8-21-6-19v-3l-22 3-5 1 3 7 8 14 12 18 3 6h-3l-14-20-11-19-1-3-8 1-14 5v4l3 1 2 4h-4l-4-5-6 1-4 1 1-3 4-2-1-4-14-18-12-18-6-10-5 1-17 11-3 1 4 7 14 15 7 8 16 16v2l-4-2-8-7-16-16-7-8-8-10-4-2-1-4-13-19-12-19-5-9v-2l-5 3-10 11-5 7 2 6 8 12 12 16 8 10-3 1-8-9-10-13-9-14-3-5-2-1-3-8v-3h2l3 6 4-4 7-9 6-7 3-2v-4l5-1 15-10z" fill="#29273B"/>
<path transform="translate(353,502)" d="m0 0 2 1 2 17 2 3 1 8 3 7 3 9 1 11 6 15 8 16 4 4 8 17 11 15 9 10 13 13 3 5 1 2 5-1 3 2v2h-3l5 5 12 11 16 9 11 6 13 9 6 3 1 2 5-1 12 5 33 2 3 2h-28l14 4 20 3 12 3 14 2h36l3-1-1-4-9 1h-21l-20-3-12-2v-2l-9-3-9-9-3-4-2-5v-6l3 4 5 9 5 4 14 7 11 3 13 2h31l21-5 16-8 7-8 4-4v3l29-6 20-6h5l-4 3-24 7-24 5-5 3-1 2h-2l-2 4-8 5-8 4 1 2h-7l-9 2h-4v4h12l5 1 4 2-22 3-15 1h-15l-23-2-27-5-19-5-21-8-15-7-18-10-12-8-15-11-12-11-19-19-7-8-10-13-11-17-10-19-5-10-11-33-4-16-2-12v-9z" fill="#1C1933"/>
<path transform="translate(727,315)" d="m0 0 16 5 21 8 9 4 1 2 3 23 1 13v12l-9-3-20-8-18-6-1-1z" fill="#FEFEFE"/>
<path transform="translate(421,389)" d="m0 0h3l2 31 3 19v5l-20 12-15 11-3-1-4-23-2-21v-9l8-7 24-15z" fill="#FEFEFE"/>
<path transform="translate(604,541)" d="m0 0h17l25 2 1 5-8 37-4 15-1 1-21-1-9-1-1-1v-55z" fill="#FEFEFE"/>
<path transform="translate(580,541)" d="m0 0h21v58l-25 2h-6l-3-10-9-40v-7l9-2z" fill="#FEFEFE"/>
<path transform="translate(756,509)" d="m0 0 6 1 18 11 8 7 1 3-12 21-10 15-8 11-3 3-4-2-16-10-5-2v-5l9-16 12-27z" fill="#FEFEFE"/>
<path transform="translate(445,509)" d="m0 0 4 1 6 15 14 29 4 8-1 4-10 7-9 6-4 3-6-7-12-18-9-15-6-11 1-5 21-13z" fill="#FEFEFE"/>
<path transform="translate(598,221)" d="m0 0 24 1 25 3 26 6 12 4-1 3-10-3-26-6-2-1 1 4-4-2-5-2-21-2-14-1 1 9v21l51 3 2 1-3-9 2-3 4 12 1 1 27 4 19 4-5-8-10-14-3-2-13-3v-1h10l3-1 16 9 16 7 12 7 14 12 5 9-1 2-8-1-15-6-14-4v3h-2l-3-5-29-6-19-3v6l-2-2-2-5-21-2-18-1h-14l-1 13 32 1 14 1 11 2v1h-15l-11-1-31-1v19h-1v-19l-33 1-12 1h-11l2-2 17-2h36v-15h-10l1-2h9l-1-22-1-2h2v-7l-46 4-27 7-14 5-6 1 1-3 19-7 14-4 14-3 27-3z" fill="#221F36"/>
<path transform="translate(385,366)" d="m0 0h4l-2 9-2 10-2 25-7 8-8 8-7 9-1 8 3 25 2 10v12l1 10-6 15-2 4-2-1-2-15-2 6h-1l-2-19v-32l3-24 6-28 7-21 1-2h4l1-4h2l4-6 5-6z" fill="#535456"/>
<path transform="translate(650,544)" d="m0 0 24 4 15 4-1 4-6 16-9 20-7 14-2 1-27-5 2-12 10-45z" fill="#FEFEFE"/>
<path transform="translate(548,545)" d="m0 0h7l2 7 7 34 3 12v4l-24 5-4-1-9-17-11-27-3-10 15-4z" fill="#FEFEFE"/>
<path transform="translate(538,374)" d="m0 0 15 1 47 6 1 1v27l-28 1-26 2h-7z" fill="#FEFEFE"/>
<path transform="translate(691,554)" d="m0 0 9 1 19 7 7 3-1 5-15 23-8 11-10 13-6-2-17-6-1-3 11-23 11-28z" fill="#FEFEFE"/>
<path transform="translate(508,554)" d="m0 0h6l8 20 8 19 7 14-8 4-14 6-4-1-7-11-8-10-10-15-7-11v-4l20-8z" fill="#FEFEFE"/>
<path transform="translate(604,411)" d="m0 0h21l37 3 2 1-1 18-1 12-2 1-31-2-24-1-2-2v-29z" fill="#FEFEFE"/>
<path transform="translate(580,411)" d="m0 0h21v31l-4 1-54 3-2-18v-13l13-2z" fill="#FEFEFE"/>
<path transform="translate(665,392)" d="m0 0h1l1 8v12l12 2-1 3-11-1-1 4-2 27 12 1 1 3-11-1-3-1-2 28 34 6 10 2-2 1v2l-26-5-17-2-9 58-2-4 1-10 7-46-21-1-32-2v-1l13-1h11l24 2 6 1 1-15 2-14h-12l-43-2v-1l11-1v-1h12l32 2 3-30-39-3h-21l-1 1-1 29h-1v-31l-36 2-24 2 2 25v6l17-2 14-1h13v1l10 1v1l-28 1-25 2 3 27 29-2 13-1h13l-1 3-47 3-6 1 5 40h-3l-5-35-1-4-26 4-18 4-4-1h2v-2l27-6 19-3-3-27h-5l-1-3 5-1-2-30-26 4-22 5-6-1 4-2 32-7 12-2 12-1 3-1 26-2h28l1-2 2 1 38 2 22 2z" fill="#2C2A3D"/>
<path transform="translate(536,415)" d="m0 0 3 1 2 30-6 2-33 6-10 3-5-1-4-22v-8l15-4 31-6z" fill="#FEFEFE"/>
<path transform="translate(667,415)" d="m0 0 25 4 25 6 5 2-1 11-4 19-10-2-37-7-6-1v-12l1-15z" fill="#FEFEFE"/>
<path transform="translate(790,532)" d="m0 0 5 2 11 12 5 7-1 5-12 18-8 11-11 12-4 4-4-4-8-10-5-5 1-4 8-9 10-16 10-17z" fill="#FEFEFE"/>
<path transform="translate(411,532)" d="m0 0h3l9 16 7 11 8 12 8 11-1 4-10 10-4 7-4-2-10-11-12-16-11-17-1-4 8-10z" fill="#FEFEFE"/>
<path transform="translate(776,335)" d="m0 0 5 2 11 6 16 11 4 5 3 13 4 26 1 11-11-7-10-7-17-10-2-3v-11l-3-28z" fill="#FEFEFE"/>
<path transform="translate(669,355)" d="m0 0 21 3 24 5 12 3 1 1v16l-1 11-9-1-47-9-2-1z" fill="#FEFEFE"/>
<path transform="translate(728,568)" d="m0 0 4 1 12 7 9 6 1 3-8 9-7 8-3 4h-2l-2 4-14 14-6 5-5-1-9-6-4-3 1-4 8-9 12-17z" fill="#FEFEFE"/>
<path transform="translate(604,445)" d="m0 0 45 2 12 1-1 14-2 15-48-3-7-2v-23z" fill="#FEFEFE"/>
<path transform="translate(473,568)" d="m0 0 4 1 11 18 14 19 8 10-1 4-10 6-4 3-4-1-22-22-7-8-11-13v-3z" fill="#FEFEFE"/>
<path transform="translate(597,445)" d="m0 0h4v28l-49 4h-5l-1-1-2-19v-8l12-2 13-1z" fill="#FEFEFE"/>
<path transform="translate(604,350)" d="m0 0 27 1 34 3 2 3-1 25-10-1-43-7-8-1-2-3v-19z" fill="#FEFEFE"/>
<path transform="translate(477,428)" d="m0 0h3l2 10 3 17-1 4-29 10-13 6-3-1-6-23v-7l25-10z" fill="#FEFEFE"/>
<path transform="translate(725,428)" d="m0 0 12 3 20 7 15 7-1 9-5 20-7-1-23-9-16-5-1-2 5-28z" fill="#FEFEFE"/>
<path transform="translate(475,315)" d="m0 0h3l-1 13-3 29-3 1-36-1-7-1 1-12 2-11 12-6 23-9z" fill="#FEFEFE"/>
<path transform="translate(663,449)" d="m0 0 17 2 29 6 7 3-4 19-2 7-10-1-32-6-7-1-1-5z" fill="#FEFEFE"/>
<path transform="translate(533,450)" d="m0 0h8l2 12 1 15-13 3-25 5-11 2-2-6-4-17v-5l27-6z" fill="#FEFEFE"/>
<path transform="translate(604,382)" d="m0 0 35 5 23 4 3 1v20l-3 1-35-3-23-1-1-1v-23z" fill="#FEFEFE"/>
<path transform="translate(447,586)" d="m0 0 4 2 8 10 15 16 12 12 5 4-2 5-3 1-2 4-4 5-4-2-13-9-11-9-13-12-7-6 1-6 12-13z" fill="#FEFEFE"/>
<path transform="translate(755,586)" d="m0 0 4 1 7 8 7 10-6 7-10 9-14 12-17 12h-2l-7-9-4-4 2-4 8-7 20-20 7-8z" fill="#FEFEFE"/>
<path transform="translate(779,418)" d="m0 0 8 1 25 7 7 3-2 20-3 15-2 3-5-2-9-7-19-11-4-2 1-10z" fill="#FEFEFE"/>
<path transform="translate(381,416)" d="m0 0h1l2 16 3 23 3 14-7 8-10 11-4 6-2-1-6-32-1-18 8-12 12-14z" fill="#FEFEFE"/>
<path transform="translate(480,462)" d="m0 0h6l4 15 2 11-7 3-20 7-11 5-5 1-2-2-6-20v-6l16-6z" fill="#FEFEFE"/>
<path transform="translate(719,461)" d="m0 0 17 5 26 10 2 1-2 11-6 16-4-1-26-10-12-4-1-1 1-10 4-16z" fill="#FEFEFE"/>
<path transform="translate(473,365)" d="m0 0 4 1 13 1v1l-13 1 3 35 2 19 5 1-1 2h-3l5 30 7-1 17-4 17-3h11l-4 2-20 4-23 5h-4l2 12h-2l-1 2-2-11-12 3-27 10-4 1-1-2 18-8 24-8-2-14-2-16-33 11h-4v-2l24-9 12-3-2-11-4-44-7 1-21 8-17 7-1 1 1 23v16l-2-3-1-3-1-15v-16l-12 6-19 12-7 6-1 7h-2v-5h-2l-2 4-11 13-7 11h-2l1-8 11-13 13-13h3l2-4 13-9 15-9 16-8 19-8 10-3z" fill="#222037"/>
<path transform="translate(484,681)" d="m0 0 25 7 28 6 10 10 4 3v2l7 1 3 3 23 4 8 1h30l2 5-4 1h-36l-24-4-6-2-20-3-10-3-1-2h26l-33-2-12-5-4-3v-2l20 2 15 2h6l-35-5-11-3-10-8z" fill="#FEFEFE"/>
<path transform="translate(428,447)" d="m0 0h2l7 26v4l-18 10-11 8-6 4-5-12-4-16 5-5 12-9 15-9z" fill="#FEFEFE"/>
<path transform="translate(821,430)" d="m0 0 9 1 9 4 5 7v13l-4 26-3 12-2 2-8-11-7-8-5-4-1-4 5-24z" fill="#FEFEFE"/>
<path transform="translate(774,448)" d="m0 0 5 1 16 9 15 11 1 6-7 22-2 2-16-11-14-8-4-2 1-10 4-19z" fill="#FEFEFE"/>
<path transform="translate(569,275)" d="m0 0h32v20l-60 4v-9l2-11 5-2z" fill="#FEFEFE"/>
<path transform="translate(604,275)" d="m0 0h30l27 3 2 7 1 14-31-2-29-2z" fill="#FEFEFE"/>
<path transform="translate(730,368)" d="m0 0 20 6 27 11 1 1v20l-9-1-39-9-1-1v-13z" fill="#FEFEFE"/>
<path transform="translate(728,405)" d="m0 0 20 4 28 7 1 3-4 23-6-1-20-8-21-7v-11z" fill="#FEFEFE"/>
<path transform="translate(532,279)" d="m0 0h9l-3 20-2 2-14 2-34 7-6 1 1-8 3-12 1-2 34-8z" fill="#FEFEFE"/>
<path transform="translate(636,604)" d="m0 0 21 3 7 2-7 14-11 17-7 10-3 5-8-1-8-2 1-6 7-18 6-19z" fill="#FEFEFE"/>
<path transform="translate(668,393)" d="m0 0 15 2 35 7 7 3-1 12-1 7-10-2-34-7-12-2-1-2 1-15z" fill="#FEFEFE"/>
<path transform="translate(664,279)" d="m0 0 13 1 24 5 15 4 2 1 5 19v2l-10-2-24-5-20-3-3-2z" fill="#FEFEFE"/>
<path transform="translate(560,605)" d="m0 0h9l7 22 8 21 1 4-13 3-4-1-14-21-12-20v-4l5-2z" fill="#FEFEFE"/>
<path transform="translate(552,229)" d="m0 0h6l-1 4h-2l-2 6-8 21-34 6-12 3-3-1 7-11 10-12 7-3 31-6h2v-2l-30 6h-5l1-2 20-6z" fill="#FEFEFE"/>
<path transform="translate(604,602)" d="m0 0h16l13 1v6l-10 29-5 13-4 1-10-2-1-14v-32z" fill="#FEFEFE"/>
<path transform="translate(391,558)" d="m0 0h2l8 14 10 13 11 13 6 7-4 20-5-3-13-13-9-11-9-10-3-7 1-9 4-13z" fill="#FEFEFE"/>
<path transform="translate(581,602)" d="m0 0h20l1 47-4 2h-11l-10-25-6-19 1-4z" fill="#FEFEFE"/>
<path transform="translate(812,558)" d="m0 0 3 4 4 12v9l-4 6-8 10-10 11-5 5-6 7-5 3-4-16-1-3 9-11 9-10 9-13z" fill="#FEFEFE"/>
<path transform="translate(437,479)" d="m0 0 2 2 7 22v4l-11 6-15 9-6 4-4-6-6-14v-6l17-12 12-7z" fill="#FEFEFE"/>
<path transform="translate(766,480)" d="m0 0 6 2 11 6 17 12 1 1v5l-7 15-3 5-5-2-8-6-15-9-4-2-1-3z" fill="#FEFEFE"/>
<path transform="translate(598,233)" d="m0 0 3 1v22l-40 2-13 1 2-8 5-12 4-4z" fill="#FEFEFE"/>
<path transform="translate(443,507)" d="m0 0 2 1v2l-22 13-6 4 1 6 10 18 14 21 7 9 8-6 14-9 1-4-15-30-5-11 1-5 2 3 14 30 8 14 20-8 9-2v3l-27 9 3 7 3 6-3 1-6-10-5 1-17 11-3 1 4 7 14 15 7 8 16 16v2l-4-2-8-7-16-16-7-8-8-10-4-2-1-4-13-19-12-19-5-9v-2l-5 3-10 11-5 7 2 6 8 12 12 16 8 10-3 1-8-9-10-13-9-14-3-5-2-1-3-8v-3h2l3 6 4-4 7-9 6-7 3-2v-4l5-1 15-10z" fill="#29283B"/>
<path transform="translate(392,366)" d="m0 0h33l-1 17-3 3-11 6-17 11-6 5h-2l2-25 4-16z" fill="#FEFEFE"/>
<path transform="translate(716,680)" d="m0 0h5l-4 3-24 7-24 5-5 3-1 2h-2l-2 4-8 5-8 4 1 2h-7l-9 2h-4v4h12l5 1 4 2-22 3-15 1h-15l-23-2-27-5-5-1v-1h10l2 1 5-2 9 2 20 3h36l3-1-1-4-9 1h-21l-20-3-12-2v-2l-9-3-9-9-3-4-2-5v-6l3 4 5 9 5 4 14 7 11 3 13 2h31l21-5 16-8 7-8 4-4v3l29-6z" fill="#27253A"/>
<path transform="translate(684,236)" d="m0 0 6 1 15 6 16 8 15 9 15 10 9 7 15 12v2l4 2 15 16 8 10 9 12 10 15 10 19 11 27 1 3 2 17 2 7v5h-2l-2-7-3-16-6-16-5-9v-2h2l-4-8-6-11-9-14-3-4-1-3-3-3-4-6-3-1-8-11-13-13h2l1-2-4-2-9-9-16-12 1 4 5 8 3 3 1 5h-2l-5-6-7-4 4-2-6-10-12-10-14-8-22-10-4-3-9-4z" fill="#1C1933"/>
<path transform="translate(773,608)" d="m0 0h2l4 14v6l-12 10-16 11-20 12h-2l-3-11 1-4 18-13 14-12 12-11h2z" fill="#FEFEFE"/>
<path transform="translate(717,682)" d="m0 0 4 1-6 7-12 6-39 6h8l26-4h5l-3 5-14 5-25 2-2 1 21-1-3 3-16 4-11 1-10 3-14 1-2-1v-4l13-3h5l4-4 12-6 3-4h2l2-4 9-3 27-6z" fill="#FEFEFE"/>
<path transform="translate(504,241)" d="m0 0 3 1 2 1v2l-24 10-12 7-10 8-7 9-5 9-5 6-3 9h-2l-1 5-7 21 18-8 22-8 6-1 2-11 3-9h1l-1 11-2 8 15-4 29-6h10l-3 2-8 2-31 6-13 3-2 14h-2l1-13-25 9-21 9-2 1 1-9 4-13-5 2-11 6-13 10-5 8-3 6h-1v-6l7-12 8-5 13-8 12-7 10-19 10-15-10 7-12 11-7 2 6-7 13-11 21-14 15-9z" fill="#27253A"/>
<path transform="translate(430,608)" d="m0 0 7 6 10 9 13 11 17 12 2 4h-2l-1 10-2 1-11-6-14-9-17-12-5-4-1-2v-9l3-10z" fill="#FEFEFE"/>
<path transform="translate(534,611)" d="m0 0h5l11 20 16 23-1 3-7 3-4-1-17-16-10-10-8-10-3-3 1-3z" fill="#FEFEFE"/>
<path transform="translate(385,366)" d="m0 0h4l-2 9-2 10-2 25-7 8-8 8-7 9-4 8-2 1 1-6 3-7 3-25 6-18 8-14 6-7z" fill="#FEFEFE"/>
<path transform="translate(595,350)" d="m0 0h5l1 1v21l-45-6-18-2v-9l12-2 24-2z" fill="#FEFEFE"/>
<path transform="translate(666,611)" d="m0 0 8 1 15 6-2 4-11 12-21 21-7 5-10-4 3-6 9-12 13-22z" fill="#FEFEFE"/>
<path transform="translate(651,237)" d="m0 0 11 1 27 5 5 4 10 14 4 6-1 2-24-5-22-3-3-5-6-17z" fill="#FEFEFE"/>
<path transform="translate(511,621)" d="m0 0 4 1 13 15 10 10 8 7 7 6-1 3-5 3-7-1-21-14-13-10-10-8v-3l12-8z" fill="#FEFEFE"/>
<path transform="translate(691,621)" d="m0 0 5 1 12 8-1 4-10 8-15 11-15 10-7 4-5-2-5-5 6-4 15-14 12-12 7-8z" fill="#FEFEFE"/>
<path transform="translate(763,480)" d="m0 0 2 2-1 7-5 16v2l6 2 19 12 5 4 3-1 7-17 2-5h1l-1 9-7 15 1 5 5 4 7 8 5 7 2 1 2-5 6-12 3 1-9 17-2 6-3 3-9 14-9 12-9 10-5 6-2-2 7-8 9-11 17-25-1-5-7-9-7-8-5-2-7 14-10 16-9 13-7 6v-3l7-9 13-20 9-16 2-4-4-5-15-10-9-5-4-1-3 10-9 20-11 22-2-1 2-6 13-27 7-17v-4l-14-6-14-5-1-3 10 3 18 7 4 2 3-11z" fill="#211F36"/>
<path transform="translate(721,292)" d="m0 0 7 1 18 6 17 7 4 5 5 16v2l-9-3-21-8-15-5-3-6z" fill="#FEFEFE"/>
<path transform="translate(815,363)" d="m0 0 4 2 11 11 8 16 4 13 3 17v3l-8-1-8-6-7-7-3-25z" fill="#FEFEFE"/>
<path transform="translate(390,472)" d="m0 0 2 2 4 15 4 11-2 4-8 7-8 10-4 4-4-8-5-17 1-5 8-10 11-12z" fill="#FEFEFE"/>
<path transform="translate(480,292)" d="m0 0 4 1-5 19-31 11-12 6h-3l4-16 3-6 27-11z" fill="#FEFEFE"/>
<path transform="translate(559,410)" d="m0 0h7l-2 2-10 2-13 1 2 25v6l17-2 14-1h13v1l10 1v1l-28 1-25 2 3 27 29-2 13-1h13l-1 3-47 3-6 1 5 40h-3l-5-35-1-4-26 4-18 4-4-1h2v-2l27-6 19-3-3-27h-5l-1-3 5-1-2-30-26 4-22 5-6-1 4-2 32-7 12-2 12-1 3-1z" fill="#28263A"/>
<path transform="translate(813,475)" d="m0 0 4 1 8 8 9 13 1 2v6l-8 20h-2l-9-12-11-11v-5l3-7 4-14z" fill="#FEFEFE"/>
<path transform="translate(604,258)" d="m0 0h14l28 2 11 1 3 6 1 8h-12l-14-1-30-1-2-1v-13z" fill="#FEFEFE"/>
<path transform="translate(789,321)" d="m0 0 4 1 9 3 4 6v2l3 1 3 6 7 10 7 12 5 10v2l-3 1-11-11-2-1 4 16 3 21v11l-2-1-3-20-5-29-4-6-21-14-11-6 3 16 2 20v11l-4 1v-13l-2-23-2-15-3-1 1-2 4 1v2l6 2 16 9 9 7h2l-5-14-6-8-8-5z" fill="#2C2A3D"/>
<path transform="translate(399,505)" d="m0 0 3 1 10 21-2 4-5 5-8 9-5 7-3-3-9-19 1-5 11-13z" fill="#FEFEFE"/>
<path transform="translate(803,505)" d="m0 0 4 2 5 5 9 10 3 5-1 7-9 17-3-1-7-9-6-7-5-4 1-6 8-18z" fill="#FEFEFE"/>
<path transform="translate(590,258)" d="m0 0h11v15l-36 1-21 1 1-9 3-5 20-2z" fill="#FEFEFE"/>
<path transform="translate(710,633)" d="m0 0 3 1 7 8 2 2-1 4-18 10-17 9-20 8-4-4 1-4 15-9 14-10 14-11z" fill="#FEFEFE"/>
<path transform="translate(492,634)" d="m0 0 5 2 8 7 17 12 14 9 6 4v3l-4 4-12-5-35-17-9-5 1-4 4-5h2l2-4z" fill="#FEFEFE"/>
<path transform="translate(330,776)" d="m0 0 8 2 40 13 34 10 35 9 17 4v2l-19 1-5-1-2 1-9-1-43-15-46-19-10-5z" fill="#120E2E"/>
<path transform="translate(319,725)" d="m0 0 5 1 30 9 41 11 31 7 10 2v3h3l-2 4h-3v2h-7l-24-7-36-12-25-9-21-9z" fill="#14102F"/>
<path transform="translate(695,244)" d="m0 0 6 2 20 9 12 7 14 12 5 9-1 2-23-9-16-5-10-17-7-9z" fill="#FEFEFE"/>
<path transform="translate(838,558)" d="m0 0h2l-2 9-6 15-12 22-9 14-12 16-14 15-15 15-12 10-17 12-20 12-3-1 3-4-1-2 16-8 14-8 12-9 6-7-3-1 4-4 5-2-1 4h-2l1 2 6-9 17-17 10-13 9-14 4-10h4l1-6 7-14 3-8h2l1-7z" fill="#181530"/>
<path transform="translate(507,245)" d="m0 0h2l-2 4-10 14-5 8-9 3-20 7-10 4 2-6 8-10 11-9 15-8z" fill="#FEFEFE"/>
<path transform="translate(661,263)" d="m0 0 13 1 26 5 9 2 4 6 4 10-40-8-13-2-2-5z" fill="#FEFEFE"/>
<path transform="translate(426,632)" d="m0 0 7 4 15 11 16 10 10 6 2 2 1 11-9-3-21-11-14-8-4-5-3-12z" fill="#FEFEFE"/>
<path transform="translate(536,263)" d="m0 0h8l-1 7-2 6-10 2-29 6-13 3 1-6 3-8 2-2 36-7z" fill="#FEFEFE"/>
<path transform="translate(480,650)" d="m0 0 5 1 24 13 20 9 8 4v5l-3 1-17-4-20-7-15-6-5-4 1-9z" fill="#FEFEFE"/>
<path transform="translate(777,632)" d="m0 0h1l-1 11-4 9-9 6-17 10-16 7-4 1 2-12 13-8 16-10 11-8z" fill="#FEFEFE"/>
<path transform="translate(720,650)" d="m0 0 5 1 2 7v5l-17 8-25 9-16 4-2-4 1-4 19-8 16-8 16-9z" fill="#FEFEFE"/>
<path transform="translate(1084,384)" d="m0 0 6 4 21 21 7 8 13 15 13 17 10 15 11 19 9 17h-3v-2l-2-1-4-6-7-12-6-10-3-3-4-8v-2h-2l-1-4-7-6v-3h-2l-9-12-5-3-4-4h-3l-1 4-11-19-11-16-5-7z" fill="#14102E"/>
<path transform="translate(587,225)" d="m0 0h14v7l-3 2-39 2-3 3-6 14-1 5 29-2h14l-2 3-33 2-21 3-37 7h-3v-2l20-5 25-4h4l3-11 7-16 2-1 1-3-3-1z" fill="#28263A"/>
<path transform="translate(777,416)" d="m0 0h3l-5 29 6 2 17 10 9 7 5 2 6-24h1v8l-4 20 12 12 10 15 1 1v6h-2l-1 7-6 14-1 5-1-4-2-1h2l3-10 4-10v-6l-7-11-11-12h-3l-6 20-3 1 3-12 3-10-1-6-17-12-15-8h-3l-6 29h-1l-1-8 6-25-9-3-14-6-22-7-1-3 9 2 20 7 14 6 4 1 2-16z" fill="#1F1D35"/>
<path transform="translate(602,603)" d="m0 0h1l1 33v14l10 1 18 3 16 5 1 3 5 1 4 3 5-2 10-6 16-11 13-10 4-3h2l-2 4-15 12-10 7-18 11 1 4 3 2 4 1-3 2 1 5 4 1-2 4-4 3h-2l-1-10-6-9-8-6-15-6-13-3-9-1h-21l-19 3-11 2 5-6 9-1 10-2 13-1 2-1z" fill="#1E1C34"/>
<path transform="translate(924,327)" d="m0 0 2 4 5 8 1 3h2v2l5 2 8 3-3 2-8 4-7 7-4 9h-2l-3-8-5-6-8-5-5-2 2-2 9-4 5-4 4-7z" fill="#585959"/>
<path transform="translate(668,384)" d="m0 0h7l47 9 4 2 2 2v6l1 2-2 10-1 11-3-4 1-17-15-4-38-7-3-1z" fill="#48494F"/>
<path transform="translate(687,556)" d="m0 0h3l-3 10-13 30-5 10v2l17 6 6 2 13-17 3-1-2 5-9 11-2 2v6l-5 1-15 16-13 13-11 9-2 1 1-4 13-12 20-20 6-8-10-3-8-3h-5l-10 18-10 15-6 8v3l-3 1-2-2 7-11 7-10 9-15 5-9-9-3v-2l11 1 8-16 11-25z" fill="#201D35"/>
<path transform="translate(817,590)" d="m0 0h2l-1 8-7 14-12 16-11 12-9 9-2-1 3-16 2-5 15-14 12-13 7-9z" fill="#FEFEFE"/>
<path transform="translate(603,225)" d="m0 0h14l21 2 5 2 4 3-1-4 20 4 16 5 5 3-3 1h-11l-17-3h-4l3 6v6h-2l-5-12v-2l-44-3z" fill="#252339"/>
<path transform="translate(603,371)" d="m0 0 10 2 43 7 2 2 5 3 3-1v6l-1 2-14-2-46-7-2-4z" fill="#4C4C51"/>
<path transform="translate(603,537)" d="m0 0 9 2v2h-8v57l25 2h5l6-23 6-29 2-1v7l-10 45-1 3 11 1 6 2v2l-18-2-6 20-7 19-3 8 2 1-5-1 3-9 9-25 3-9 1-6h-13l-16-1-1 2-1 44h-1v-46h-8v-2l7-1 1-58h-8v-1l8-1z" fill="#232137"/>
<path transform="translate(385,590)" d="m0 0 4 2 10 11 14 16 8 7 3 3 2 15 1 5-7-6-15-15-13-18-8-17z" fill="#FEFEFE"/>
<path transform="translate(433,311)" d="m0 0 3 1-6 19-17 10-16 11-1-3 6-15 6-7 14-10z" fill="#FEFEFE"/>
<path transform="translate(486,274)" d="m0 0h4l-3 10-3 5-27 9-15 7 3-11 6-7 23-9z" fill="#FEFEFE"/>
<path transform="translate(847,452)" d="m0 0h2l2 7v37l-3 22-2 7-2-2-2-12-4-11 1-9 4-20 3-17z" fill="#FEFEFE"/>
<path transform="translate(770,312)" d="m0 0 6 2 15 9 9 7 4 6 5 14-3 1-14-10-17-9-5-18z" fill="#FEFEFE"/>
<path transform="translate(714,274)" d="m0 0 8 1 29 11 8 7 4 9v2l-9-3-12-5-21-7-3-4-4-9z" fill="#FEFEFE"/>
<path transform="translate(552,709)" d="m0 0 6 1 3 3 23 4 8 1h30l2 5-4 1h-36l-24-4-6-2-20-3-10-3-1-2 29 1z" fill="#FDFDFD"/>
<path transform="translate(356,451)" d="m0 0 2 1 6 34 2 8-1 9-5 12-2 4-2-1-2-15-1-14v-26l2-11z" fill="#FEFEFE"/>
<path transform="translate(480,417)" d="m0 0h1l1 6 5 1-1 2h-3l5 30 7-1 17-4 17-3h11l-4 2-20 4-23 5h-4l2 12h-2l-1 2-2-11-12 3-27 10-4 1-1-2 18-8 24-8-2-14-2-16-33 11h-4v-2l24-9 12-3v-6z" fill="#222037"/>
<path transform="translate(781,389)" d="m0 0 6 2 12 7 20 14 4 5 2 2-11-2-29-8-5-2z" fill="#FEFEFE"/>
<path transform="translate(686,239)" d="m0 0 4 1 6 3 2 5 8 11 6 11 27 9 10 4-3 2-18-7-14-4v3h-2l-3-5-29-6-19-3v6l-2-2-2-5-21-2-18-1v-1l10-1h14l13 1 2 1-3-9 2-3 4 12 1 1 27 4 19 4-5-8-10-14-3-2-13-3v-1h10z" fill="#211F36"/>
<path transform="translate(724,666)" d="m0 0h3l-2 10-4 4-30 8-19 4h-5l2-5 6-3 24-7 19-8z" fill="#FEFEFE"/>
<path transform="translate(478,666)" d="m0 0 6 2 19 8 24 7 8 2 2 7-12-2-26-6-18-6-2-1-1-4z" fill="#FEFEFE"/>
<path transform="translate(825,533)" d="m0 0 4 4 4 13 1 6-5 10-6 10h-2l-4-14-2-3-1-6 6-10z" fill="#FEFEFE"/>
<path transform="translate(377,533)" d="m0 0h2l10 19 1 5-4 10-3 10-5-5-7-13 1-11z" fill="#FEFEFE"/>
<path transform="translate(366,504)" d="m0 0h2l9 25-2 6-5 13-1 4h-2l-5-14-2-6v-13l3-10z" fill="#FEFEFE"/>
<path transform="translate(441,293)" d="m0 0 3 1-7 13-22 13-10 6-7 12-5 15-3 3h-7l2-5 12-17 4-8 6-4 3-5 9-10 5-4 16-9z" fill="#FEFEFE"/>
<path transform="translate(504,241)" d="m0 0 3 1 2 1v2l-24 10-12 7-10 8-7 9-5 9-5 6-3 9h-2l-1 5-1 2h-2l1-6 9-17 10-15-10 7-12 11-7 2 6-7 13-11 21-14 15-9z" fill="#191631"/>
<path transform="translate(443,507)" d="m0 0 2 1v2l-22 13-6 4 1 6 10 18 3 4v2l-3 1-11-19-3-5v-2l-5 3-10 11-5 7 2 6 8 12 12 16 8 10-3 1-8-9-10-13-9-14-3-5-2-1-3-8v-3h2l3 6 4-4 7-9 6-7 3-2v-4l5-1 15-10z" fill="#27263A"/>
<path transform="translate(721,460)" d="m0 0 8 1 20 7 12 5h6v5l9 3 18 11 8 6 3-1 2 6 12 12 6 8v3h2l4 10 5 14v7h-2l-5-18-4-5h-2v-7l-6-8-8-10-4-3h-3l-2-5-14-10-14-8-6-3v2h-2v-5l-10-3-21-8-11-4z" fill="#201D35"/>
<path transform="translate(837,505)" d="m0 0 3 4 3 12 1 11-4 16-2 5-3-3-5-14-2-5v-6l6-14z" fill="#FEFEFE"/>
<path transform="translate(347,666)" d="m0 0 3 1-23 13-20 12-12 9-8 7h-2l-2 4-7 8-1-3 7-11-2-5-11-1 3-2 19-5 16-7 36-18z" fill="#15112E"/>
<path transform="translate(601,275)" d="m0 0h3v20l29 1 26 2 5 1 1-4 2 4 12 3v1h-11v18h-2l-1-3v-16l-40-3h-23v18h-1v-19l-21 1h-18l2-2 6-1 18-1h13z" fill="#201E36"/>
<path transform="translate(766,659)" d="m0 0h2l-2 4-9 8-17 11-15 8-3 2-5 5-8 4-6 1 5-5 7-4h3l2-6 4-7 19-9 14-7 7-4z" fill="#FEFEFE"/>
<path transform="translate(437,659)" d="m0 0 6 2 22 12 13 6 4 4 4 7 11 8 2 4-10-5-10-7-22-12-8-6-12-10z" fill="#FEFEFE"/>
<path transform="translate(719,694)" d="m0 0 2 1-2 4-14 7-18 7-18 6-18 4h-15v-2l15-4 15-2 11-3 1-1-24 1 3-2 4-1 25-2 14-5 2-3h2l1 2 10-4z" fill="#252339"/>
<path transform="translate(822,577)" d="m0 0 1 4-2 5 1 9h-3v-5l-5 4-7 9-15 16-10 9-4 21-4 8-3 2v-3h2l1-8 3-10v-5l-13 10-17 11-4 1v-2l14-9 16-12 5-4-1-9-1-10h2l4 15 5-4 7-8h2l2-4 11-12 8-11 1-2h2v-4h2z" fill="#2A283C"/>
<path transform="translate(386,473)" d="m0 0 3 1-7 7-9 11-3 6 2 10 6 16 4-4 9-11 8-7 2 1v2l-8 7-9 10-3 4 1 7 5 10-2 4-6-12v-2l-3 1-1-8-7-19v-3h-2l-5 15-1 12h-1l-1-8-2-5h2l5-13 2-5-1-17h2l2 10 12-14z" fill="#252339"/>
<path transform="translate(602,235)" d="m0 0h1l1 20 21 1 3 2-24 1-1 13 32 1 14 1 11 2v1h-15l-11-1-31-1v19h-1v-19l-33 1-12 1h-11l2-2 17-2h36v-15h-10l1-2 9-1z" fill="#13102D"/>
<path transform="translate(623,717)" d="m0 0 1 4h12l5 1 4 2-22 3-15 1h-15l-23-2-27-5-5-1v-1h10l2 1 5-2 9 2 20 3h36l3-1-1-3z" fill="#363543"/>
<path transform="translate(455,272)" d="m0 0h2l-2 5-7 10-3 6-7 3-9 5-9 6-6 5-6 3-3 2 2-4 14-15 10-8 5-2 13-12z" fill="#232037"/>
<path transform="translate(733,366)" d="m0 0 7 1 27 10 10 5 5 2 22 13 15 11 3 3 2 5-4-1-5-5-24-16-8-4v-2l-4 1-4-4-31-12-13-4z" fill="#1B1832"/>
<path transform="translate(617,474)" d="m0 0h11l24 2h8l1 1 34 6 10 2-2 1v2l-26-5-17-2-9 58-2-4 1-10 7-46-21-1-32-2v-1z" fill="#2E2C3E"/>
<path transform="translate(183,620)" d="m0 0 4 4 14 24 8 12 8 11 2 4-1 5h-3l-1 9-3-3-5-16-10-22-10-19-3-6z" fill="#14112E"/>
<path transform="translate(427,335)" d="m0 0h2l-1 7-2 12-1 2h-27l-2-2 19-12z" fill="#FEFEFE"/>
<path transform="translate(540,262)" d="m0 0h7l-3 13 4 1v2l-4 1-2 11-1 9 15-2h8v3l-19 2h-5l-2 49 4 1-5 1-2-2 2-44 1-4h-5l3-1 3-16 1-6h-13l-1-2 13-2 2-1 3-12z" fill="#2B2A3D"/>
<path transform="translate(432,634)" d="m0 0 7 4 13 9 11 7 11 6 1-2 1-6 3-3 3 1-3 3-1 9 8 5 24 9 19 5 6 1 3-1 2-3-1 9-3 3-1-4-16-4-24-8-17-8v10l-2-1-1-10-9-6-12-7-17-12-5-4z" fill="#262439"/>
<path transform="translate(602,413)" d="m0 0h1l1 28 1 1 17 2v1h-18v27l13 2v1h-13l-1 63-2 1v-94h-15l1-2 15-1zm-3 126 2 1z" fill="#16132F"/>
<path transform="translate(762,293)" d="m0 0 16 8 10 9 8 9 2 5-5-1-11-7-12-7-5-6-3-7z" fill="#FEFEFE"/>
<path transform="translate(764,657)" d="m0 0 2 1v2l-8 4-12 7-20 9h-2l-2 5-4 8-14 7-1-1-11 1-20 3h-9l1-2 39-6 12-6 5-6-1-2h2v-2h2l3-10h2v-5h1l-1 11 12-5 14-7z" fill="#211F36"/>
<path transform="translate(777,416)" d="m0 0h3l-5 29 6 2 15 9-1 3-16-9-5-1-6 29h-1l-1-8 6-25-9-3-14-6-22-7-1-3 9 2 20 7 14 6 4 1 2-16z" fill="#262439"/>
<path transform="translate(270,768)" d="m0 0h2l7 20 8 16 8 15 5 9-1 3-4-5-17-28-11-16-3-4v-2l4-1 1-5z" fill="#181531"/>
<path transform="translate(739,571)" d="m0 0 5 2 10 7 4 2 7 8 7 9 3 3h3l-2 9-1-3h-2v2l-6 4 2-5 3-4-8-11-5-5v-2h-4l-6 8-14 15-16 16v-3l9-10 6-7h2l2-4 10-11 5-7v-2l-5-2-9-6z" fill="#242138"/>
<path transform="translate(839,548)" d="m0 0 3 1v7l-1 2-4 2-2 7h-2l-3 11-8 15-2-3 1-6 1-5h-2l-1 4-2-12-4-11 1-6h1l2 7 3 8 1 7 4-4 8-16 3 1v-5z" fill="#41414B"/>
<path transform="translate(428,366)" d="m0 0h12l21 1-1 2-20 8-14 6v-10z" fill="#FEFEFE"/>
<path transform="translate(190,748)" d="m0 0 5 2 2 6-16 6-19 9-22 12-8 2 3-3 17-9 16-10 14-9z" fill="#14112E"/>
<path transform="translate(429,557)" d="m0 0h3l10 15 7 9 1 4 4 2 9 11 16 17 13 13v2l-4-2-8-7-16-16-7-8-8-10-4-2-1-4-13-19z" fill="#201D35"/>
<path transform="translate(551,518)" d="m0 0 3 4 3 18 31-2h13l-2 2-19 2-22 2-1 3-2-1-14 1-20 4 2-4 26-5h5l-3-16z" fill="#232137"/>
<path transform="translate(521,627)" d="m0 0 4 2 11 12 10 10 8 7 4 1 6-2-1 4-14 7-7 8-2 2-4-4 4-1 2-4-9-6-4-3 4-1 9 6 7-1 4-4-4-2-9-9-8-7-9-9-3-5z" fill="#2B293C"/>
<path transform="translate(375,532)" d="m0 0 2 3-4 13-1 11 7 14 2 6 3 6v6l-2 1-6-10-6-13-4-11v-8l1 2h2l1-8z" fill="#545456"/>
<path transform="translate(602,603)" d="m0 0h1l1 33v14l10 1 5 2v1l-27 1-19 3-11 2 5-6 9-1 10-2 13-1 2-1z" fill="#181530"/>
<path transform="translate(603,537)" d="m0 0 9 2v2h-8v57l9 1-2 3h-7l-1 2-1 44h-1v-46h-8v-2l7-1 1-58h-8v-1l8-1z" fill="#2E2C3E"/>
<path transform="translate(436,307)" d="m0 0 2 3-2 10-3 9 15-7 2 1 1 2-19 8-2 1 1-9 4-13-5 2-11 6-13 10-5 8-3 6h-1v-6l7-12 8-5 13-8z" fill="#302F3F"/>
<path transform="translate(603,225)" d="m0 0h14l21 2 5 2 2 3-1 1-21-1-19-1z" fill="#FEFEFE"/>
<path transform="translate(986,355)" d="m0 0 5 2 17 16 11 12v2l-4-1h-1l-1 2-7-4-10-15-10-13z" fill="#181531"/>
<path transform="translate(504,241)" d="m0 0 3 1 2 1v2l-24 10-12 7-10 8-3 4h-2l1-4 4-7 20-12z" fill="#16132F"/>
<path transform="translate(587,225)" d="m0 0h14v6l-34 2h-7l1-4 5-2z" fill="#FEFEFE"/>
<path transform="translate(413,311)" d="m0 0v3l-4 5-2 4-4 3h-2l-2 7-9 12-6 9-4 1 1-5 12-18 7-10 4-5 5-4z" fill="#1C1933"/>
<path transform="translate(806,336)" d="m0 0 4 1 7 10 9 15 4 9-1 2-14-14-4-6-4-13z" fill="#FEFEFE"/>
<path transform="translate(649,535)" d="m0 0h1l1 6 36 7-2 1v2l-27-5-8-1-2 4-2-5-34-3v-2h14l22 1z" fill="#1F1D35"/>
<path transform="translate(655,247)" d="m0 0 2 3 4 10 27 4v3l-27-4v6l-2-2-2-5-21-2-18-1v-1l10-1h14l13 1 2 1-3-9z" fill="#232137"/>
<path transform="translate(559,410)" d="m0 0h7l-2 2-10 2-14 1v6h-1l-1-5-26 4-22 5-6-1 4-2 32-7 12-2 12-1 3-1z" fill="#232137"/>
<path transform="translate(483,578)" d="m0 0h3l7 11 10 14 6 8 2 5 5 1 1 5 3 1 2 4h-4l-4-5-6 1-4 1 1-3 4-2-1-4-14-18-11-16z" fill="#221F36"/>
<path transform="translate(371,379)" d="m0 0 1 3-5 11-4 13-3 17-2 4-1-2-2 3v-9l6-23 5-13h4z" fill="#323041"/>
<path transform="translate(853,455)" d="m0 0 2 4v33l-1 11-1 3h-2l-1 2 1-49z" fill="#2A283B"/>
<path transform="translate(763,665)" d="m0 0m-1 1m-1 1m-1 1m-2 1 2 1-2 4-17 12-20 12-3-1 3-4-1-2 16-8 14-8z" fill="#1C1933"/>
<path transform="translate(998,631)" d="m0 0 2 1-2 5-12 12h-2l-2 4-5 4-6 7h-2l-1 2-3-1 4-6 24-24z" fill="#110D2C"/>
<path transform="translate(390,556)" d="m0 0 2 2-4 10-2 9 1 7 4 6 13 15 3 5h-3l-12-13-5-6h-3l-2-9-4-7v-2h2l2 3 3-9 4-10z" fill="#2A283B"/>
<path transform="translate(438,474)" d="m0 0 5 1-2 1 4 16 3 10 1 3h2v5l2 3v5h-2l-3-8-4-2 1-5-7-22h-2l-12 6-4 1 1-3 16-9z" fill="#1E1C34"/>
<path transform="translate(386,545)" d="m0 0h2l3 6 4-2-1 6 10 16 12 16 8 10-3 1-8-9-10-13-9-14-3-5-2-1-3-8z" fill="#28263A"/>
<path transform="translate(455,272)" d="m0 0h2l-2 5-8 11-10 6-12 6 2-4 4-2 1-3 8-7 12-10z" fill="#FEFEFE"/>
<path transform="translate(537,685)" d="m0 0 3 4 5 9 5 4 14 7 11 3 6 1v1h-6v2l-15-2v-2l-9-3-9-9-3-4-2-5z" fill="#242238"/>
<path transform="translate(780,626)" d="m0 0h2l-3 19-3 9-5 5v-3h2l1-8 3-10v-5l-13 10-17 11-4 1v-2l14-9 16-12z" fill="#201D35"/>
<path transform="translate(749,274)" d="m0 0 5 2 16 13 9 9-3 1-17-9-6-7z" fill="#FEFEFE"/>
<path transform="translate(390,404)" d="m0 0 2 1-6 8-1 7h-2v-5h-2l-2 4-11 13-7 11h-2l1-8 11-13 13-13h3l2-4z" fill="#1E1C34"/>
<path transform="translate(646,228)" d="m0 0 20 4 16 5 5 3-3 1-32-6-4-2z" fill="#FBFBFB"/>
<path transform="translate(480,417)" d="m0 0h1l1 6 5 1-1 2h-3v11l-2 1-1-10-33 11h-4v-2l24-9 12-3v-6z" fill="#1E1C34"/>
<path transform="translate(813,474)" d="m0 0 7 1 7 7 10 15 1 1v6h-2l-1 7-6 14-1 5-1-4-2-1h2l3-10 4-10v-6l-7-11-11-12z" fill="#2B293C"/>
<path transform="translate(484,649)" d="m0 0 6 2 19 10 26 12 5 5-2 4h-1l-1-5-20-9-17-8-16-9z" fill="#2A283B"/>
<path transform="translate(678,415)" d="m0 0h7l31 7 7 2 1-5h1l1 7 1 2-2 1-1 6h-2l-1-8-25-6-18-4z" fill="#27253A"/>
<path transform="translate(706,634)" d="m0 0h2l-2 4-15 12-10 7-18 11-1-3 11-7 16-11 13-10z" fill="#201E35"/>
<path transform="translate(530,355)" d="m0 0h6v9l-28-3 1-2z" fill="#FEFEFE"/>
<path transform="translate(474,370)" d="m0 0h3l4 42-1 7-2 3-4-41z" fill="#2E2C3E"/>
<path transform="translate(662,612)" d="m0 0 3 1-6 12-13 20-6 8v3l-3 1-2-2 7-11 7-10 9-15z" fill="#222036"/>
<path transform="translate(487,668)" d="m0 0 10 3 20 7 18 4 3-1 2-3-1 9-3 3-1-4-16-4-24-8-9-4z" fill="#2F2D3F"/>
<path transform="translate(811,556)" d="m0 0 2 2-7 11-12 17-10 11-5 6-2-2 7-8 9-11 17-25z" fill="#27253A"/>
<path transform="translate(353,502)" d="m0 0 2 1 2 17 2 3 1 8 2 6-2 9-2-4-4-16-2-12v-9z" fill="#232137"/>
<path transform="translate(444,586)" d="m0 0 3 1-9 9-5 7 1 5 3 4h-3l-4-3-3 10-1 9-3-3 4-20-5-7 4 1 5 4 2-5 7-8z" fill="#262439"/>
<path transform="translate(602,413)" d="m0 0h1l1 28 1 1 17 2v1h-18l-1 16-2 1v-17h-15l1-2 15-1z" fill="#15122E"/>
<path transform="translate(601,407)" d="m0 0 3 1v2h11v1l-11 1-1 1-1 29h-1v-31l-40 2 3-2 9-2h28z" fill="#28263A"/>
<path transform="translate(589,473)" d="m0 0h13l-1 3-47 3-7 1 1-3 13-2z" fill="#29273B"/>
<path transform="translate(789,321)" d="m0 0 4 1 9 3 4 6v2l3 1v2h-3l5 12 1 7-5-4 1-1-5-14-6-8-8-5z" fill="#5E5C6B"/>
<path transform="translate(555,718)" d="m0 0 9 2 20 3-4 2-10 1-27-5-5-1v-1h10l2 1z" fill="#242238"/>
<path transform="translate(381,415)" d="m0 0h2v5h2l1 2 2 21 3 18v5l-2 1-4-17-3-29z" fill="#333141"/>
<path transform="translate(686,624)" d="m0 0v3l-9 10-15 15-11 9-2 1 1-4 13-12 18-18z" fill="#222036"/>
<path transform="translate(540,613)" d="m0 0 5 3 8 14 12 18 3 6h-3l-14-20-11-19z" fill="#222036"/>
<path transform="translate(775,334)" d="m0 0 2 1 4 36v11l-4 1v-13l-2-23-1-10z" fill="#3B3A46"/>
<path transform="translate(764,657)" d="m0 0 2 1v2l-8 4-12 7-16 7h-5l-2 1 3-10h2v-5h1l-1 11 12-5 14-7zm-43 22 2 1-1 2-3-1h2z" fill="#252338"/>
<path transform="translate(490,681)" d="m0 0 9 2 30 7 9 1 1 5-13-3-29-7-9-3z" fill="#353443"/>
<path transform="translate(549,234)" d="m0 0h4v2l-12 3-25 5-5 3-2-3-3-2v-2h2v2l6-2 19-3z" fill="#3E3D4C"/>
<path transform="translate(538,352)" d="m0 0m-8 0h7l6 2v1h-5l-1 2-1-1-12 1-11 2h-15l2-2z" fill="#232137"/>
<path transform="translate(574,443)" d="m0 0h13v1l10 1v1l-28 1-13 1h-12l2-2 3-1z" fill="#2C2A3D"/>
<path transform="translate(555,228)" d="m0 0h8l-3 5 23-2h18l-3 3-41 2 1-7z" fill="#2E2D3E"/>
<path transform="translate(657,480)" d="m0 0 2 2-1 11-7 46-2-4 1-10z" fill="#3C3C47"/>
<path transform="translate(427,312)" d="m0 0h2l-1 3-12 7-11 9-7 13h-1v-6l7-12 8-5 13-8z" fill="#252339"/>
<path transform="translate(604,409)" d="m0 0h23l35 3 2 2h-14l-46-4z" fill="#201D35"/>
<path transform="translate(815,365)" d="m0 0 2 4 4 23 1 8v11l-2-1-3-20-3-18z" fill="#47474E"/>
<path transform="translate(750,518)" d="m0 0 3 1-9 20-11 22-2-1 2-6 13-27z" fill="#211F36"/>
<path transform="translate(540,415)" d="m0 0h1l2 25v6l3 1 1 2h-3l-1 13h-1l-1-12h-5l-1-3 5-1-1-14v-11z" fill="#373644"/>
<path transform="translate(540,262)" d="m0 0h7l-3 13 4 1v2l-4 1-2 11-3 2 1-12h-13l-1-2 13-2 2-1 3-12z" fill="#2E2C3E"/>
<path transform="translate(570,608)" d="m0 0 3 1 6 20 8 20-1 3-3-4-8-21-5-15z" fill="#211F36"/>
<path transform="translate(832,565)" d="m0 0 1 4-5 13-6 11-2-3 1-6 7-14z" fill="#FEFEFE"/>
<path transform="translate(701,519)" d="m0 0 1 4-8 25v5h-3l-1 3-2-1 1-3-4-1v-2l5-1 9-27z" fill="#222037"/>
<path transform="translate(602,235)" d="m0 0h1l1 20 21 1 3 2-26 1v14h-1v-15h-10l1-2 9-1z" fill="#181530"/>
<path transform="translate(521,567)" d="m0 0 2 3 11 25 5 11h-3l-8-16-9-20 1-2z" fill="#201E36"/>
<path transform="translate(768,307)" d="m0 0 14 8 8 5-2 2-13-8-5-2 4 12v6l-3-1-3-11-1-8z" fill="#323141"/>
<path transform="translate(707,655)" d="m0 0h2l-2 4-15 8-19 8-4-2 23-10z" fill="#262439"/>
<path transform="translate(372,566)" d="m0 0 3 4 6 9 3 6v6l-2 1-6-10-5-12z" fill="#FEFEFE"/>
<path transform="translate(900,58)" d="m0 0 5 5 7 10 11 16-1 3-3-1-6-10-11-17z" fill="#2B1E62"/>
<path transform="translate(695,620)" d="m0 0 8 4 6 4 4-1 3-3h2l-1 4-3 2 1 4 5 4 1 3-4-1-4-4v-2l-5 1-1-5-11-7z" fill="#262439"/>
<path transform="translate(389,369)" d="m0 0 1 4-3 18-1 15-1 2 2 1-4 1v-15l2-15 3-10z" fill="#545456"/>
<path transform="translate(838,558)" d="m0 0h2l-2 9-6 15-4 5-3 1 2-6 6-15h2l1-7z" fill="#1D1A33"/>
<path transform="translate(361,537)" d="m0 0 2 1 3 9 1 11 2 8h-3l-6-17z" fill="#191631"/>
<path transform="translate(727,313)" d="m0 0 11 3 20 7 12 5-1 3-31-12-10-3z" fill="#262439"/>
<path transform="translate(686,239)" d="m0 0 4 1 6 3 2 5 7 9-2 1-1 2-10-14-3-2-13-3v-1h10z" fill="#29283B"/>
<path transform="translate(497,695)" d="m0 0 9 1 35 5 1 2-15-1-24-3-3-1 3 4h-3l-1 2-1-5z" fill="#4E4E52"/>
<path transform="translate(617,474)" d="m0 0h11l24 2 3 1v2l-19-1-32-2v-1z" fill="#242238"/>
<path transform="translate(578,256)" d="m0 0h14l-2 3-39 2 1-3z" fill="#2A283C"/>
<path transform="translate(649,226)" d="m0 0 12 2 21 6 3 2-1 2-10-3-26-6z" fill="#222037"/>
<path transform="translate(386,473)" d="m0 0 3 1-7 7-9 11-4 5-1-1-2 3-2-9v-7h2l2 10 12-14z" fill="#42424B"/>
<path transform="translate(488,489)" d="m0 0 5 1-4 2-31 11-7 3-2-2 19-8z" fill="#2B293C"/>
<path transform="translate(453,516)" d="m0 0 2 3 14 30 1 5h-2l-11-22-5-11z" fill="#252338"/>
<path transform="translate(631,611)" d="m0 0h1v8l-9 25-3 8 2 1-5-1 3-9 9-25z" fill="#323141"/>
<path transform="translate(580,724)" d="m0 0 34 1v2l-6 1h-15l-15-1-3-2z" fill="#171430"/>
<path transform="translate(489,471)" d="m0 0h2l4 15 3 2h-2l3 14-3 1-3-13h-2l-1-9z" fill="#191631"/>
<path transform="translate(770,329)" d="m0 0 5 1v2l6 2 16 9 5 4-1 3-16-10-10-6-1 3-1-5-3-1z" fill="#252338"/>
<path transform="translate(670,862)" d="m0 0h27l23 2v1h-40l-10-2z" fill="#110C2E"/>
<path transform="translate(531,659)" d="m0 0 5 2 6 4 7-1h3l-1 3-7 6-4 5-4-4 4-1 2-4-9-6-4-3z" fill="#2F2E3F"/>
<path transform="translate(588,295)" d="m0 0h13l-4 3-17 1h-18l2-2 6-1z" fill="#221F36"/>
<path transform="translate(846,529)" d="m0 0 2 2-1 9-4 13-2 1v-5l-1-4 3-13z" fill="#1C1933"/>
<path transform="translate(601,275)" d="m0 0h3l1 20 6 1v2l-9 1v18h-1v-19l-4-1 4-1z" fill="#42424B"/>
<path transform="translate(661,266)" d="m0 0h1l2 10 5 1-4 3 1 16-3-1-2-16-6-1-1-3h7l-1-6z" fill="#373644"/>
<path transform="translate(623,273)" d="m0 0h12l14 1 11 2v1h-15l-11-1-30-1v-1z" fill="#363544"/>
<path transform="translate(526,301)" d="m0 0h10l-3 2-8 2-22 4h-6v-2z" fill="#2A283B"/>
<path transform="translate(508,705)" d="m0 0 6 1 2 1 33 2 3 2h-28l-2 1-14-6z" fill="#505154"/>
<path transform="translate(443,507)" d="m0 0 2 1v2l-22 13-6 4-3-1 12-9z" fill="#2F2D3F"/>
<path transform="translate(839,387)" d="m0 0 2 2 2 6 2 17 2 7v5h-2l-2-7-3-16-2-6z" fill="#242238"/>
<path transform="translate(520,279)" d="m0 0h7v2l-28 6-11 2v-5l1 3 13-4z" fill="#353443"/>
<path transform="translate(436,612)" d="m0 0 4 1 15 14 9 7-1 3-11-9-10-9-6-5z" fill="#29273B"/>
<path transform="translate(704,837)" d="m0 0 7 1v1l-11 1-9 1-24-1v-2z" fill="#060225"/>
<path transform="translate(716,680)" d="m0 0h5l-4 3-24 7-11 1 2-2 29-8z" fill="#29273B"/>
<path transform="translate(525,480)" d="m0 0 4 1v2l-29 6-4-1h2v-2z" fill="#28273B"/>
<path transform="translate(370,423)" d="m0 0 4 1-6 8-7 11h-2l1-8z" fill="#43424B"/>
<path transform="translate(537,375)" d="m0 0 2 4 1 20v13l4 1h-6l-1-7z" fill="#4F4F53"/>
<path transform="translate(425,333)" d="m0 0 4 1-9 6-18 11h-2l1-3 17-11z" fill="#28263B"/>
<path transform="translate(605,295)" d="m0 0 28 1 14 2v1h-22l-14-1v-2h-6z" fill="#1E1C34"/>
<path transform="translate(330,776)" d="m0 0 8 2 24 8v2h-8l-23-10z" fill="#2E2650"/>
<path transform="translate(486,272)" d="m0 0h5v2l-17 5-20 8h-2l1-3 23-9z" fill="#313040"/>
<path transform="translate(690,697)" d="m0 0h8v2l-26 4h-9l1-2z" fill="#2D2B3D"/>
<path transform="translate(399,502)" d="m0 0 2 1v2l-8 7-9 10-4 4v-3l6-8 9-10z" fill="#353443"/>
<path transform="translate(162,767)" d="m0 0m-2 1 2 1-1 3-23 12-6 1 3-3 17-9z" fill="#3E3D48"/>
<path transform="translate(543,770)" d="m0 0h14l22 1v1l-5 1h-23l-12-1z" fill="#1D1A33"/>
<path transform="translate(694,552)" d="m0 0 10 2 21 8-1 3-24-9-9-2z" fill="#232137"/>
<path transform="translate(839,548)" d="m0 0 3 1v7l-1 2-4 2-2 7h-2l-1-3v-3l1-5 3 1v-5z" fill="#59595C"/>
<path transform="translate(588,538)" d="m0 0h13l-2 2-19 2h-13l2-2 4-1z" fill="#201E36"/>
<path transform="translate(617,443)" d="m0 0h12l14 1-2 1v2l-35-1v-1l11-1z" fill="#343342"/>
<path transform="translate(480,417)" d="m0 0h1l1 6 5 1-1 2h-3v11l-2 1-1-10-8 1 1-3 6-1v-6z" fill="#181530"/>
<path transform="translate(425,390)" d="m0 0 2 3 1 17v16l-2-3-1-3z" fill="#1E1C34"/>
<path transform="translate(452,282)" d="m0 0 1 2-3 5-4 5-3 9h-2l-1 5-1 2h-2l1-6 9-17z" fill="#1A1732"/>
<path transform="translate(389,338)" d="m0 0 4 1-2 5-7 10-4 1 1-5z" fill="#28263A"/>
<path transform="translate(558,231)" d="m0 0 1 2-7 15-3 10v2h-2l-1-5 6-16 3-6z" fill="#2F2E3F"/>
<path transform="translate(466,464)" d="m0 0 5 1-3 2-23 9-3-1 4-3z" fill="#29273B"/>
<path transform="translate(713,271)" d="m0 0 21 6 15 6-3 2-18-7-15-4z" fill="#323141"/>
<path transform="translate(513,664)" d="m0 0 9 3 14 7 4 4-2 4h-1l-1-5-20-9-3-2z" fill="#2C2A3D"/>
<path transform="translate(822,577)" d="m0 0 1 4-2 5 1 9h-3v-5l-5 4-3 3v-4l6-8 1-2h2v-4h2z" fill="#262439"/>
<path transform="translate(443,494)" d="m0 0 3 1 3 10h2v5l2 3v5h-2l-3-8-4-2 1-5z" fill="#1B1832"/>
<path transform="translate(432,444)" d="m0 0h1l3 16 3 11-1 5-2-3-5-19z" fill="#29283B"/>
<path transform="translate(509,614)" d="m0 0h2v2l5 1 1 5 3 1 2 4h-4l-4-5-6 1-4 1 1-3 4-2z" fill="#201D35"/>
<path transform="translate(647,547)" d="m0 0h1v7l-6 27-2-4 6-29z" fill="#343342"/>
<path transform="translate(700,674)" d="m0 0 2 1-3 3-24 7h-2v-3l21-6z" fill="#2D2B3D"/>
<path transform="translate(768,610)" d="m0 0m-1 1m-1 1 1 3-11 10-10 8-2-2 10-9 8-7z" fill="#242138"/>
<path transform="translate(503,553)" d="m0 0 3 1v2l-18 6-5 2h-3v-2l14-6z" fill="#2A293C"/>
<path transform="translate(559,410)" d="m0 0h7l-2 2-10 2-14 1v6h-1l-2-7 7-2 3-1z" fill="#2C2B3D"/>
<path transform="translate(760,290)" d="m0 0 16 8h4l-1 3-4-1-12-6 3 9 2 4-6-2-2-12z" fill="#4A4A50"/>
<path transform="translate(509,244)" d="m0 0 2 2-1 4-9 11-5 8-2-2 6-10 8-10z" fill="#2B293C"/>
<path transform="translate(480,681)" d="m0 0h4l3 6 8 6 4 4v2l-4-2-9-6-4-5z" fill="#373644"/>
<path transform="translate(827,531)" d="m0 0h2l6 16 1 3v7h-2l-5-18-4-7z" fill="#2F2E3F"/>
<path transform="translate(424,631)" d="m0 0 2 1 4 17 4 6-4 1-4-6-2-10z" fill="#505155"/>
<path transform="translate(183,620)" d="m0 0 4 4 10 17-4 2-10-20z" fill="#363543"/>
<path transform="translate(386,545)" d="m0 0h2l3 6 4-2-1 6 4 7v3l-3-1-4-7-2-1-3-8z" fill="#221F36"/>
<path transform="translate(411,529)" d="m0 0 3 3-5 3-10 11-4 4v-3l7-9 6-7z" fill="#4F4F53"/>
<path transform="translate(724,492)" d="m0 0 10 3 18 7 4 3-3 1-14-6-14-5z" fill="#2A283C"/>
<path transform="translate(601,407)" d="m0 0 3 1v2h11v1l-11 1-1 1-1 29h-1v-31h-12v-1h12z" fill="#4B4C51"/>
<path transform="translate(566,721)" d="m0 0 18 2-4 2-10 1-12-2 3-2z" fill="#41404A"/>
<path transform="translate(548,490)" d="m0 0h1l4 26-1 4h-2l-3-20z" fill="#383845"/>
<path transform="translate(677,449)" d="m0 0 10 1 20 4v2l-11-1-19-4z" fill="#28263A"/>
<path transform="translate(1024,392)" d="m0 0 4 2 9 11 2 5-5-3-5-5-5-6z" fill="#13102E"/>
<path transform="translate(723,664)" d="m0 0 4 2-20 9-6 1 1-3z" fill="#252238"/>
<path transform="translate(726,426)" d="m0 0 9 2 20 7-3 2-25-8z" fill="#313040"/>
<path transform="translate(474,370)" d="m0 0h3l1 21-3 1-1-11z" fill="#585959"/>
<path transform="translate(432,634)" d="m0 0 7 4 13 9 6 4-2 2-15-10-9-7z" fill="#323041"/>
<path transform="translate(777,631)" d="m0 0h2l1 8-2 11-6 9-1-3h2l1-8 3-10z" fill="#44444E"/>
<path transform="translate(612,539)" d="m0 0h14l15 1v2h-20l-9-1z" fill="#201D35"/>
<path transform="translate(347,666)" d="m0 0 3 1-23 13-3 1 1-4 19-10z" fill="#2D2C3E"/>
<path transform="translate(391,591)" d="m0 0 5 5 10 11 1 3h-3l-12-13z" fill="#3A3A46"/>
<path transform="translate(653,381)" d="m0 0h8l9 2 2 2h-3l-2 15h-1l-1-10 1-6h-2l-1 2-5-3-5-1z" fill="#13102D"/>
<path transform="translate(565,273)" d="m0 0h10l-2 2-16 2h-11l2-2z" fill="#252339"/>
<path transform="translate(464,635)" d="m0 0 4 2 10 7h4v4h2v2l-6-2-12-9-2-1z" fill="#1F1D35"/>
<path transform="translate(602,379)" d="m0 0 2 1-1 28-2-1v-27z" fill="#1B1832"/>
<path transform="translate(651,234)" d="m0 0 28 5-3 2-14-2-12-2z" fill="#393845"/>
<path transform="translate(357,787)" d="m0 0h8l10 3-4 2v2l-9-3-5-2z" fill="#211B3F"/>
<path transform="translate(239,577)" d="m0 0 4 1 6 4 7 9h-3l-14-12z" fill="#2F255B"/>
<path transform="translate(604,231)" d="m0 0h19l12 1v1l-6 1-25-1z" fill="#43424B"/>
<path transform="translate(1179,669)" d="m0 0 1 3-12 23-2-2 9-18z" fill="#181530"/>
<path transform="translate(560,444)" d="m0 0h7l2 3-13 1h-12l2-2 3-1z" fill="#2A293C"/>
<path transform="translate(606,600)" d="m0 0h23l4 2v1h-13l-14-2z" fill="#1B1832"/>
<path transform="translate(390,556)" d="m0 0 2 2-4 10-3 13-3-3 5-17z" fill="#46464E"/>
<path transform="translate(657,480)" d="m0 0 2 2-1 11-2 14-2 2v-10z" fill="#3B3A46"/>
<path transform="translate(777,416)" d="m0 0h3l-4 24-2-3 1-11z" fill="#343242"/>
<path transform="translate(724,290)" d="m0 0h3v3l-6-1 4 15v2h-3l-3-12v-5z" fill="#2C2B3D"/>
<path transform="translate(687,556)" d="m0 0h3l-3 10-5 12h-3l3-9z" fill="#2C2A3D"/>
<path transform="translate(706,498)" d="m0 0 2 2-1 7-4 14-3-1 3-12z" fill="#2C2A3D"/>
<path transform="translate(542,440)" d="m0 0h1v6l3 1 1 2h-3l-1 13h-1l-1-12h-5l-1-3 7-1z" fill="#43434C"/>
<path transform="translate(532,413)" d="m0 0h6l-2 3-22 3 1-3z" fill="#313040"/>
<path transform="translate(779,360)" d="m0 0h1l1 11v11l-4 1v-20z" fill="#555557"/>
<path transform="translate(811,556)" d="m0 0 2 2-7 11-4 6h-3l2-5z" fill="#2F2E3F"/>
<path transform="translate(727,367)" d="m0 0h1l1 18v11l-3 1-1-2z" fill="#505154"/>
<path transform="translate(445,288)" d="m0 0 2 1-2 4-7 3-9 5-3 1v-3l14-8z" fill="#373644"/>
<path transform="translate(549,234)" d="m0 0h4v2l-12 3-10 1-2-2z" fill="#47474E"/>
<path transform="translate(894,205)" d="m0 0 2 2-2 2-5 4-10 7h-3v-2l16-11z" fill="#4A36AB"/>
<path transform="translate(680,577)" d="m0 0 1 3-8 18h-3l2-6 7-14z" fill="#211F36"/>
<path transform="translate(381,415)" d="m0 0h2v5h2l1 2v13l-1 7h-1l-2-21z" fill="#505054"/>
<path transform="translate(444,586)" d="m0 0 3 1-9 9-5 7-2 4v-3l-2-1h2l2-5 7-8z" fill="#3D3D48"/>
<path transform="translate(538,544)" d="m0 0 3 1v2l-20 4 2-4z" fill="#262439"/>
<path transform="translate(668,355)" d="m0 0h1v21l-1 7-2-1v-22h1z" fill="#535456"/>
<path transform="translate(434,656)" d="m0 0 7 2 14 7 3 3-2 1-19-10-1 2z" fill="#3D3C48"/>
<path transform="translate(603,537)" d="m0 0 9 2v2h-8l-1 7-2 1v-8h-8v-1l8-1z" fill="#323041"/>
<path transform="translate(763,480)" d="m0 0 2 2-1 7-4 12-3 1 3-12z" fill="#2D2B3E"/>
<path transform="translate(419,486)" d="m0 0 2 1v2l-16 11-2-2 10-8z" fill="#302F40"/>
<path transform="translate(810,475)" d="m0 0h2l-1 8-4 13-3 1 3-12z" fill="#323041"/>
<path transform="translate(1102,675)" d="m0 0 3 2-3 4h-2l-1 3-3 1-1 3h-3l2-5 5-6z" fill="#130F2D"/>
<path transform="translate(814,554)" d="m0 0h1l2 7 3 8 1 9-2-1-5-15-1-4z" fill="#343342"/>
<path transform="translate(409,455)" d="m0 0 3 1-5 4-12 9-2 2 1-5z" fill="#3C3C47"/>
<path transform="translate(787,863)" d="m0 0h20l-2 2-25 1v-1z" fill="#25223A"/>
<path transform="translate(579,631)" d="m0 0 2 3 6 15-1 3-3-4-5-12z" fill="#28263A"/>
<path transform="translate(669,609)" d="m0 0 9 2 10 4-1 3-20-7z" fill="#252338"/>
<path transform="translate(801,502)" d="m0 0h1l-1 9-7 15-2-2 7-17z" fill="#2B2A3C"/>
<path transform="translate(363,505)" d="m0 0 2 3-3 8-1 3-1 12h-1l-1-8-2-5h2z" fill="#545556"/>
<path transform="translate(561,475)" d="m0 0h8l-2 1v2l-20 2 1-3z" fill="#373644"/>
<path transform="translate(390,466)" d="m0 0 3 1 2 9v7h-2l-2-9-4-2z" fill="#1C1A33"/>
<path transform="translate(464,316)" d="m0 0h4v2l-15 6-4-1 5-3z" fill="#232137"/>
<path transform="translate(588,599)" d="m0 0h12v1h-7v2h-20l3-2z" fill="#29273B"/>
<path transform="translate(718,582)" d="m0 0 1 2-7 11-4 4-1-3 8-12z" fill="#1B1932"/>
<path transform="translate(483,434)" d="m0 0h1l3 17v3l-3 1-2-11v-7z" fill="#242138"/>
<path transform="translate(319,725)" d="m0 0 5 1 20 6v1l-7 1-18-8z" fill="#585959"/>
<path transform="translate(686,666)" d="m0 0 2 1-3 3-12 5-4-2z" fill="#2D2B3D"/>
<path transform="translate(822,534)" d="m0 0 3 1-9 17-2 1-2-2h2l2-5z" fill="#302F40"/>
<path transform="translate(849,505)" d="m0 0 4 1-1 10-2 3-1 5-2-1 1-10z" fill="#545556"/>
<path transform="translate(818,442)" d="m0 0h1v8l-4 18-2-4 3-15z" fill="#302F40"/>
<path transform="translate(468,496)" d="m0 0 4 2-18 7-3 1-2-2z" fill="#363543"/>
<path transform="translate(659,476)" d="m0 0 12 3 2 2h-13l-2 1-3-3v-2z" fill="#15122E"/>
<path transform="translate(770,454)" d="m0 0 2 3-2 11-2 10h-1l-1-8z" fill="#3C3B47"/>
<path transform="translate(1022,239)" d="m0 0 3 3 7 11 2 5-3-1-8-11z" fill="#585959"/>
<path transform="translate(532,609)" d="m0 0 2 1v2l-18 6-1-2 14-6z" fill="#2D2B3D"/>
<path transform="translate(833,507)" d="m0 0 2 4-6 14-1 5-1-4-2-1h2l3-10z" fill="#3D3C48"/>
<path transform="translate(489,471)" d="m0 0h2l4 16-3 1-3-11z" fill="#1D1A33"/>
<path transform="translate(727,319)" d="m0 0h1l1 11v11l-3 2v-15z" fill="#585959"/>
<path transform="translate(665,302)" d="m0 0 2 1 1 6v12h-2l-1-3z" fill="#373644"/>
<path transform="translate(457,297)" d="m0 0 2 1v2l-17 7-2-1 2-3h2z" fill="#363543"/>
<path transform="translate(684,236)" d="m0 0 6 1 9 4v4l-4-2-11-5z" fill="#1D1A33"/>
<path transform="translate(650,717)" d="m0 0 1 4v2h-15v-2z" fill="#2E2C3E"/>
<path transform="translate(737,605)" d="m0 0v3l-18 18v-3l6-7 8-7z" fill="#0B0728"/>
<path transform="translate(775,602)" d="m0 0h3l-2 9-1-3h-2v2l-6 4 2-5 3-4v-2z" fill="#211F36"/>
<path transform="translate(521,567)" d="m0 0 2 3 5 12-3 2-6-14 1-2z" fill="#2A283C"/>
<path transform="translate(368,495)" d="m0 0 2 3 1 9h-3v-3h-2l-1 3-1-4z" fill="#1F1D35"/>
<path transform="translate(660,454)" d="m0 0 2 4-1 15-2 4h-1l1-15z" fill="#403F49"/>
<path transform="translate(721,432)" d="m0 0 2 3-1 11-1 6h-3l1-9z" fill="#313040"/>
<path transform="translate(725,568)" d="m0 0 3 1-8 14-4 1 2-5z" fill="#252339"/>
<path transform="translate(371,379)" d="m0 0 1 3-5 11h-3l-1-2 3-8h4z" fill="#29273B"/>
<path transform="translate(519,235)" d="m0 0h4l-1 3-8 3-6 1 1-3z" fill="#1C1933"/>
<path transform="translate(707,598)" d="m0 0 1 2-10 13-2-2 9-12z" fill="#242238"/>
<path transform="translate(724,419)" d="m0 0h1l1 7 1 2-2 1-1 6h-2l-1-8-2-3h4z" fill="#191631"/>
<path transform="translate(723,309)" d="m0 0 3 1 1 2v16h-2l-1-13-1-5z" fill="#1E1C34"/>
<path transform="translate(725,836)" d="m0 0h10l-4 2-4 1h-15l3-2z" fill="#060225"/>
<path transform="translate(728,664)" d="m0 0h1l-1 11h3l-1 3h-5l-2 1 3-10h2zm-7 15 2 1-1 2-3-1h2z" fill="#343342"/>
<path transform="translate(405,508)" d="m0 0 2 3 6 14h-3l-6-13z" fill="#2D2B3D"/>
<path transform="translate(759,507)" d="m0 0 6 2 8 5-1 3-12-7-4-2z" fill="#2B293C"/>
<path transform="translate(424,446)" d="m0 0 4 2-11 6-3 2h-3l1-3z" fill="#343342"/>
<path transform="translate(470,427)" d="m0 0 3 1v2l-12 4h-2l-1-3z" fill="#2B293C"/>
<path transform="translate(448,322)" d="m0 0 2 1 1 2-15 6-4-1z" fill="#2D2B3D"/>
<path transform="translate(727,313)" d="m0 0 11 3 9 3-4 2-15-5z" fill="#343342"/>
<path transform="translate(747,284)" d="m0 0h7l6 6 1 5h-2l-5-6-7-4z" fill="#1B1832"/>
<path transform="translate(745,596)" d="m0 0v3l-6 7h-3l2-4zm-11 10 2 1-2 1z" fill="#201D35"/>
<path transform="translate(380,530)" d="m0 0 2 3 5 10-2 4-6-12z" fill="#383744"/>
<path transform="translate(750,518)" d="m0 0 3 1-6 14h-3l3-9z" fill="#2C2A3D"/>
<path transform="translate(395,480)" d="m0 0 2 4 4 11-1 2h-2l-4-11z" fill="#343242"/>
<path transform="translate(617,474)" d="m0 0h11l1 3-25-1v-1z" fill="#383744"/>
<path transform="translate(1067,91)" d="m0 0 3 1-16 11-1-3z" fill="#4F38BD"/>
<path transform="translate(674,657)" d="m0 0 2 1-1 3-12 7-1-3 11-7z" fill="#262439"/>
<path transform="translate(602,598)" d="m0 0 11 1-2 3h-7l-1 2-1-1-8-1v-1l7-2z" fill="#393845"/>
<path transform="translate(671,479)" d="m0 0 13 2 5 2v1h-7l-12-2z" fill="#222037"/>
<path transform="translate(365,429)" d="m0 0 2 1-2 3-2 7-2 3h-2l1-8z" fill="#222037"/>
<path transform="translate(814,406)" d="m0 0 4 1 4 4 2 5-4-1-5-5-2-1z" fill="#181530"/>
<path transform="translate(641,297)" d="m0 0 18 1-2 1v2l-16-1z" fill="#373644"/>
<path transform="translate(639,274)" d="m0 0h10l11 2v1h-15l-6-1z" fill="#1C1933"/>
<path transform="translate(459,268)" d="m0 0v3l-1 6-4 6-4 1 2-5 5-7-2-1z" fill="#3B3A46"/>
<path transform="translate(628,257)" d="m0 0h14l-2 1v2l-22-1v-1z" fill="#312F40"/>
<path transform="translate(622,638)" d="m0 0 3 1-5 13 2 1-5-1 3-9z" fill="#363543"/>
<path transform="translate(788,531)" d="m0 0 4 1-3 3-5 10h-3l2-5z" fill="#2D2C3E"/>
<path transform="translate(411,525)" d="m0 0h3v2h2l2 6v4l-3-1-4-9z" fill="#1D1A33"/>
<path transform="translate(556,297)" d="m0 0h8v3l-14 1-2-3z" fill="#363543"/>
<path transform="translate(714,276)" d="m0 0 3 4 4 8 3 2h-5v-2l-3-1-3-7z" fill="#3A3946"/>
<path transform="translate(511,265)" d="m0 0 3 1v2l-15 3h-3v-2z" fill="#302E3F"/>
<path transform="translate(539,678)" d="m0 0 1 4-1 5-3 3-1-4-8-2 4-2 7-1z" fill="#393845"/>
<path transform="translate(562,657)" d="m0 0 2 1-1 3-9 4-3-1 1-2h2v-2z" fill="#242238"/>
<path transform="translate(706,634)" d="m0 0h2l-2 4-9 7-2-1 5-5z" fill="#1B1832"/>
<path transform="translate(640,579)" d="m0 0h1v7l-3 13-2-3 2-11z" fill="#2C2B3D"/>
<path transform="translate(692,547)" d="m0 0 2 4v2h-3l-1 3-2-1 1-3-4-1v-2z" fill="#15122E"/>
<path transform="translate(369,507)" d="m0 0 3 1 4 12-1 3-2-2-4-11z" fill="#353443"/>
<path transform="translate(725,405)" d="m0 0h1l1 10-1 11-3-4 1-12z" fill="#4F4F53"/>
<path transform="translate(671,231)" d="m0 0 11 3 3 2-1 2-10-3-4-2z" fill="#2A283C"/>
<path transform="translate(162,767)" d="m0 0m-2 1 2 1-1 3-8 4h-3v-2z" fill="#2B293C"/>
<path transform="translate(501,658)" d="m0 0 6 2 6 3-1 3-13-6z" fill="#2D2C3E"/>
<path transform="translate(537,478)" d="m0 0h6l-1 3-14 1 3-3z" fill="#252238"/>
<path transform="translate(843,398)" d="m0 0 2 4 2 6v8h-2l-2-10z" fill="#46464D"/>
<path transform="translate(402,330)" d="m0 0h2l-2 6-4 8h-1v-6z" fill="#2B293C"/>
<path transform="translate(427,312)" d="m0 0h2l-1 3-12 7-1-3z" fill="#29273B"/>
<path transform="translate(494,268)" d="m0 0 2 1-2 4-4 9h-2l1-6 3-6z" fill="#171430"/>
<path transform="translate(292,816)" d="m0 0 3 3 5 9-1 3-4-5-4-6z" fill="#4E4F53"/>
<path transform="translate(633,721)" d="m0 0 12 2v1l-9 1-9-2v-1z" fill="#515154"/>
<path transform="translate(420,624)" d="m0 0h3l6 7 3 2v2l-5-2-5-5z" fill="#252339"/>
<path transform="translate(426,610)" d="m0 0 2 1-2 17-3-3z" fill="#45454D"/>
<path transform="translate(529,448)" d="m0 0h11l-4 2-12 2-1-3z" fill="#232137"/>
<path transform="translate(678,415)" d="m0 0h7l9 3v1l-13-1-3-1z" fill="#1A1732"/>
<path transform="translate(396,342)" d="m0 0 2 4v4l3 1-3 3-4-1 1-9z" fill="#4C4C51"/>
<path transform="translate(414,305)" d="m0 0 4 1-6 7-5 3-2 1 2-4z" fill="#312F40"/>
<path transform="translate(727,291)" d="m0 0 9 2 6 2v2l-8-1-7-3z" fill="#1F1C34"/>
<path transform="translate(487,668)" d="m0 0 10 3 5 2-4 2-12-5z" fill="#343342"/>
<path transform="translate(720,648)" d="m0 0 4 2-7 3-8 4v-3z" fill="#29273B"/>
<path transform="translate(780,626)" d="m0 0h2l-2 10h-1v-5h-2v2l-4 2v-3z" fill="#1B1832"/>
<path transform="translate(711,557)" d="m0 0 9 3 5 2-1 3-13-5z" fill="#262439"/>
<path transform="translate(838,500)" d="m0 0 2 4 3 7v6l-2-1-3-9-2-1v-2h2z" fill="#343342"/>
<path transform="translate(833,495)" d="m0 0 4 2 1 1v6h-2l-1 5-1-4v-6z" fill="#16132F"/>
<path transform="translate(707,421)" d="m0 0 9 1 4 2v2l-11-2-2-1z" fill="#242238"/>
<path transform="translate(815,365)" d="m0 0 2 4 1 9-1 5h-1l-2-11z" fill="#585959"/>
<path transform="translate(536,325)" d="m0 0h1l1 25 4 2-5 1-2-2z" fill="#585959"/>
<path transform="translate(555,228)" d="m0 0h8l-2 2v3l12 1v1l-16 1 1-7z" fill="#535456"/>
<path transform="translate(330,776)" d="m0 0 8 2 9 3-2 2-5-1-10-5z" fill="#565658"/>
<path transform="translate(369,565)" d="m0 0 2 4 2 6h-2l-1 2-3-8v-3z" fill="#2C2A3D"/>
<path transform="translate(386,473)" d="m0 0 3 1-7 7-1 2-5 2 2-4z" fill="#383745"/>
<path transform="translate(670,700)" d="m0 0h9v2l-7 1h-9l1-2z" fill="#323141"/>
<path transform="translate(490,681)" d="m0 0 9 2 5 2v1h-7l-9-3z" fill="#3A3946"/>
<path transform="translate(545,652)" d="m0 0 4 1 6 7-2 2v-2l-4-2-4-4z" fill="#302E3F"/>
<path transform="translate(771,634)" d="m0 0h2l-1 3-10 7-1-3z" fill="#28263B"/>
<path transform="translate(189,633)" d="m0 0 4 1 4 8-4 1-4-8z" fill="#2D2C3E"/>
<path transform="translate(453,626)" d="m0 0 6 4 5 4-1 3-10-8z" fill="#28263B"/>
<path transform="translate(831,577)" d="m0 0h1v5l-4 5-3 1 2-6 2-4z" fill="#262439"/>
<path transform="translate(766,479)" d="m0 0h6l7 4-1 3-12-6z" fill="#28263B"/>
<path transform="translate(632,410)" d="m0 0h10l2 1v2l-19-1v-1z" fill="#302E3F"/>
<path transform="translate(473,365)" d="m0 0 4 1 13 1v1l-13 1-3 1v-2l-4-1z" fill="#080426"/>
<path transform="translate(729,349)" d="m0 0h1l1 16-6-1 2-1v-7h1z" fill="#555657"/>
<path transform="translate(807,340)" d="m0 0 2 2 3 11-1 2-4-4 1-1-2-8z" fill="#585959"/>
<path transform="translate(710,308)" d="m0 0 13 2 1 2-2 2-14-4z" fill="#302E3F"/>
<path transform="translate(545,258)" d="m0 0h2v2l2-1h6l-4 2-11 2-3-1 4-2h4z" fill="#14112E"/>
<path transform="translate(287,806)" d="m0 0 3 4 2 4v4h-2l-4-7z" fill="#313040"/>
<path transform="translate(907,753)" d="m0 0h6l-3 2-13 5h-2l1-3 10-3z" fill="#1F1D35"/>
<path transform="translate(519,651)" d="m0 0 9 5 3 2v2l-5-1-7-5z" fill="#1F1D35"/>
<path transform="translate(776,609)" d="m0 0h2l2 6v7h-2l-2-8z" fill="#27253A"/>
<path transform="translate(785,592)" d="m0 0h2l-2 4-6 7-2-2 7-8z" fill="#29283B"/>
<path transform="translate(766,473)" d="m0 0h1v5l2 1h-3v3h-2v-5l-3-1v-2z" fill="#1D1A33"/>
<path transform="translate(453,469)" d="m0 0 2 1v2l-10 4-3-1 4-3z" fill="#2F2D3F"/>
<path transform="translate(750,469)" d="m0 0 9 3 2 1-1 3-11-4z" fill="#27253A"/>
<path transform="translate(721,460)" d="m0 0 8 1 6 3v1l-8-1-6-3z" fill="#1A1732"/>
<path transform="translate(385,346)" d="m0 0 2 1-2 5-3 3h-2l1-5z" fill="#221F36"/>
<path transform="translate(506,305)" d="m0 0h6l-1 2-8 2h-6v-2z" fill="#1F1D35"/>
<path transform="translate(708,286)" d="m0 0h7l4 2v2h5l-6 3v-3l-9-2z" fill="#1F1D35"/>
<path transform="translate(558,231)" d="m0 0 1 2-5 10h-3l2-6 2-4z" fill="#242238"/>
<path transform="translate(900,58)" d="m0 0 5 5 4 5v2l-4-1-5-9z" fill="#3E3A55"/>
<path transform="translate(640,771)" d="m0 0h20v1l-21 2z" fill="#060225"/>
<path transform="translate(1160,703)" d="m0 0 1 3-7 9-1-3 5-8z" fill="#181530"/>
<path transform="translate(478,677)" d="m0 0 5 1 7 3v1l-11-1z" fill="#28263A"/>
<path transform="translate(743,632)" d="m0 0h2l-1 3-9 6h-2l1-3z" fill="#201E35"/>
<path transform="translate(489,558)" d="m0 0h3l-1 3-8 3h-3v-2z" fill="#232037"/>
<path transform="translate(386,515)" d="m0 0h2l-1 4-6 7-2-2z" fill="#2D2C3E"/>
<path transform="translate(740,499)" d="m0 0 7 1 9 4-3 2-13-6z" fill="#28263A"/>
<path transform="translate(428,420)" d="m0 0h1l1 14h-3l-1-11z" fill="#353443"/>
<path transform="translate(544,412)" d="m0 0h7l-3 2-8 1v6h-1l-2-7z" fill="#100D2B"/>
<path transform="translate(611,382)" d="m0 0h9l9 2v1h-10l-8-2z" fill="#1B1832"/>
<path transform="translate(425,333)" d="m0 0 4 1-9 6-3-1 3-3z" fill="#1D1B34"/>
<path transform="translate(487,282)" d="m0 0 3 1-3 8-2 3-3-4 3-3z" fill="#201E35"/>
<path transform="translate(520,279)" d="m0 0h7v2l-11 2h-5l2-2z" fill="#232037"/>
<path transform="translate(552,258)" d="m0 0h12l4 2-17 1z" fill="#323141"/>
<path transform="translate(572,722)" d="m0 0 12 1-4 2-10 1z" fill="#4D4D52"/>
<path transform="translate(742,669)" d="m0 0 2 1-3 3-10 4v-3z" fill="#29273B"/>
<path transform="translate(531,659)" d="m0 0 5 2 6 4-2 2-11-6z" fill="#373644"/>
<path transform="translate(707,655)" d="m0 0h2l-2 4-6 3h-3v-2z" fill="#1E1C34"/>
<path transform="translate(642,646)" d="m0 0 1 3-4 6 1 2-5-1 5-9z" fill="#2F2D3F"/>
<path transform="translate(486,636)" d="m0 0 4 1-1 2h-2l-2 4-3 2v-4z" fill="#393945"/>
<path transform="translate(695,620)" d="m0 0 8 4 4 4-2 1-10-7z" fill="#29273B"/>
<path transform="translate(675,546)" d="m0 0 12 2-2 1v2l-11-2z" fill="#2F2D3F"/>
<path transform="translate(411,529)" d="m0 0 3 3-5 3-6 4 2-4 5-5z" fill="#3C3C47"/>
<path transform="translate(551,518)" d="m0 0 3 4 1 9h-3l-1-5z" fill="#262439"/>
<path transform="translate(506,484)" d="m0 0 3 1-1 2-8 2-4-1h2v-2z" fill="#2F2D3F"/>
<path transform="translate(693,452)" d="m0 0 9 1 5 1v2l-11-1-3-1z" fill="#242138"/>
<path transform="translate(441,438)" d="m0 0 4 2-10 4-4-2z" fill="#313040"/>
<path transform="translate(496,420)" d="m0 0 3 1-1 2-11 2-3-2z" fill="#393945"/>
<path transform="translate(429,331)" d="m0 0 2 3-1 10-2 2v-12l-2-2z" fill="#4A4A50"/>
<path transform="translate(742,834)" d="m0 0h8l-2 4-5 1-2-3z" fill="#191731"/>
<path transform="translate(1084,697)" d="m0 0h3l-1 4-3 3h-5z" fill="#070227"/>
<path transform="translate(691,687)" d="m0 0h5v2l-8 2h-6l2-2z" fill="#1F1D35"/>
<path transform="translate(347,666)" d="m0 0 3 1-12 7-3-1 4-3z" fill="#4C4D51"/>
<path transform="translate(643,603)" d="m0 0 10 1 1 3-15-2z" fill="#2A293C"/>
<path transform="translate(477,569)" d="m0 0 4 1 4 8-3 1-5-8z" fill="#302F3F"/>
<path transform="translate(387,454)" d="m0 0 3 2 1 10-2 1-2-8z" fill="#2D2C3E"/>
<path transform="translate(477,312)" d="m0 0 2 1-1 2-10 3-1-3z" fill="#363543"/>
<path transform="translate(760,295)" d="m0 0 3 1 5 11-6-2-1-6z" fill="#383845"/>
<path transform="translate(664,280)" d="m0 0h1l1 16-3-1v-8z" fill="#47474E"/>
<path transform="translate(538,719)" d="m0 0h10l2 1 5-1 1 2-9 1-9-2z" fill="#585959"/>
<path transform="translate(530,691)" d="m0 0h8l1 5-13-3z" fill="#4F4F53"/>
<path transform="translate(670,683)" d="m0 0h3l-2 4-4 3h-2v-4z" fill="#201D35"/>
<path transform="translate(723,664)" d="m0 0 4 2-12 5-1-3z" fill="#2C2A3D"/>
<path transform="translate(648,638)" d="m0 0 1 3-5 6h-3l2-4z" fill="#232137"/>
<path transform="translate(1186,540)" d="m0 0 3 1 1 9-3-1z" fill="#14112E"/>
<path transform="translate(443,507)" d="m0 0 2 1v2l-10 5 1-4z" fill="#262439"/>
<path transform="translate(786,451)" d="m0 0 5 2 5 3-1 3-9-6z" fill="#232137"/>
<path transform="translate(358,418)" d="m0 0h2l-1 9-2-2-2 3 1-8z" fill="#060225"/>
<path transform="translate(356,414)" d="m0 0 5 1v5l-1-2-3 2-2 4z" fill="#3D3D48"/>
<path transform="translate(770,329)" d="m0 0 5 1v2l4 1 1 4-5-3-1 3-1-5-3-1z" fill="#171430"/>
<path transform="translate(542,279)" d="m0 0 1 3-1 8-3 2 1-12z" fill="#525255"/>
<path transform="translate(580,724)" d="m0 0h6l1 3h-9l-3-2z" fill="#211F36"/>
<path transform="translate(651,718)" d="m0 0h6l3 2-3 2h-8z" fill="#0F0B2A"/>
<path transform="translate(741,654)" d="m0 0 3 1-5 4-7 3-1-2z" fill="#2A283C"/>
<path transform="translate(479,649)" d="m0 0 3 1-3 3-1 6-3-1 1-6z" fill="#42424B"/>
<path transform="translate(627,626)" d="m0 0h1l-1 8-2 4h-2l2-9z" fill="#27253A"/>
<path transform="translate(503,622)" d="m0 0 2 1v2l-7 5h-3v-2z" fill="#2A283C"/>
<path transform="translate(488,460)" d="m0 0 2 4 1 7h-2l-1 2-1-10z" fill="#2A283C"/>
<path transform="translate(361,405)" d="m0 0h1v7l-2 3-2-1 1-7z" fill="#15122E"/>
<path transform="translate(436,307)" d="m0 0 2 3-1 3v-2l-8 3 1-4z" fill="#393845"/>
<path transform="translate(492,308)" d="m0 0 7 1v1l-11 2-3-2z" fill="#333241"/>
<path transform="translate(543,274)" d="m0 0 5 1v3l-7 2-5-1 4-2z" fill="#363543"/>
<path transform="translate(677,263)" d="m0 0 11 1v3l-11-2z" fill="#242238"/>
<path transform="translate(623,836)" d="m0 0h13l2 2-1 1h-6v-2h-8z" fill="#312E42"/>
<path transform="translate(716,680)" d="m0 0h5l-4 3-9 2 2-3z" fill="#1F1C35"/>
<path transform="translate(513,664)" d="m0 0 9 3 1 3-5-1-5-3z" fill="#1F1C35"/>
<path transform="translate(657,652)" d="m0 0m-1 1 1 3-6 5-2 1 1-4z" fill="#2F2D3F"/>
<path transform="translate(445,620)" d="m0 0 4 1 4 4-1 3-7-6z" fill="#2B2A3D"/>
<path transform="translate(751,589)" d="m0 0 1 3-6 5v-4z" fill="#252339"/>
<path transform="translate(735,550)" d="m0 0 3 1-5 10-2-1 2-6z" fill="#252339"/>
<path transform="translate(760,325)" d="m0 0 5 1 5 2-1 3-9-4z" fill="#2F2D3F"/>
<path transform="translate(771,319)" d="m0 0 2 2 1 9-3-1-1-7z" fill="#4E4E53"/>
<path transform="translate(466,294)" d="m0 0h3v2l-7 3-4-1 5-3z" fill="#1F1C35"/>
<path transform="translate(460,265)" d="m0 0 2 1-6 5-4 4v-3l5-5z" fill="#222037"/>
</svg>
